%FSLAX46Y46*%
G04 Gerber Fmt 4.6, Leading zero omitted, Abs format (unit mm)*
G04 Created by KiCad (PCBNEW (2014-08-05 BZR 5054)-product) date Wed 12 Nov 2014 18:29:59 EST*
%MOMM*%
G01*
G04 APERTURE LIST*
%ADD10C,0.100000*%
%ADD11C,0.300000*%
%ADD12C,0.381000*%
G04 APERTURE END LIST*
D10*
D11*
X196623714Y-106624286D02*
X196695143Y-106552857D01*
X196766571Y-106338571D01*
X196766571Y-106195714D01*
X196695143Y-105981429D01*
X196552286Y-105838571D01*
X196409429Y-105767143D01*
X196123714Y-105695714D01*
X195909429Y-105695714D01*
X195623714Y-105767143D01*
X195480857Y-105838571D01*
X195338000Y-105981429D01*
X195266571Y-106195714D01*
X195266571Y-106338571D01*
X195338000Y-106552857D01*
X195409429Y-106624286D01*
X196623714Y-108124286D02*
X196695143Y-108052857D01*
X196766571Y-107838571D01*
X196766571Y-107695714D01*
X196695143Y-107481429D01*
X196552286Y-107338571D01*
X196409429Y-107267143D01*
X196123714Y-107195714D01*
X195909429Y-107195714D01*
X195623714Y-107267143D01*
X195480857Y-107338571D01*
X195338000Y-107481429D01*
X195266571Y-107695714D01*
X195266571Y-107838571D01*
X195338000Y-108052857D01*
X195409429Y-108124286D01*
X195980857Y-110410000D02*
X196052286Y-110624286D01*
X196123714Y-110695714D01*
X196266571Y-110767143D01*
X196480857Y-110767143D01*
X196623714Y-110695714D01*
X196695143Y-110624286D01*
X196766571Y-110481428D01*
X196766571Y-109910000D01*
X195266571Y-109910000D01*
X195266571Y-110410000D01*
X195338000Y-110552857D01*
X195409429Y-110624286D01*
X195552286Y-110695714D01*
X195695143Y-110695714D01*
X195838000Y-110624286D01*
X195909429Y-110552857D01*
X195980857Y-110410000D01*
X195980857Y-109910000D01*
X196052286Y-111695714D02*
X196766571Y-111695714D01*
X195266571Y-111195714D02*
X196052286Y-111695714D01*
X195266571Y-112195714D01*
X195766571Y-114481428D02*
X196766571Y-114481428D01*
X195195143Y-114124285D02*
X196266571Y-113767142D01*
X196266571Y-114695714D01*
X196623714Y-115267142D02*
X196695143Y-115338570D01*
X196766571Y-115267142D01*
X196695143Y-115195713D01*
X196623714Y-115267142D01*
X196766571Y-115267142D01*
X195266571Y-116267142D02*
X195266571Y-116409999D01*
X195338000Y-116552856D01*
X195409429Y-116624285D01*
X195552286Y-116695714D01*
X195838000Y-116767142D01*
X196195143Y-116767142D01*
X196480857Y-116695714D01*
X196623714Y-116624285D01*
X196695143Y-116552856D01*
X196766571Y-116409999D01*
X196766571Y-116267142D01*
X196695143Y-116124285D01*
X196623714Y-116052856D01*
X196480857Y-115981428D01*
X196195143Y-115909999D01*
X195838000Y-115909999D01*
X195552286Y-115981428D01*
X195409429Y-116052856D01*
X195338000Y-116124285D01*
X195266571Y-116267142D01*
X187692571Y-105767143D02*
X186192571Y-105767143D01*
X187264000Y-106267143D01*
X186192571Y-106767143D01*
X187692571Y-106767143D01*
X187692571Y-108124286D02*
X186906857Y-108124286D01*
X186764000Y-108052857D01*
X186692571Y-107910000D01*
X186692571Y-107624286D01*
X186764000Y-107481429D01*
X187621143Y-108124286D02*
X187692571Y-107981429D01*
X187692571Y-107624286D01*
X187621143Y-107481429D01*
X187478286Y-107410000D01*
X187335429Y-107410000D01*
X187192571Y-107481429D01*
X187121143Y-107624286D01*
X187121143Y-107981429D01*
X187049714Y-108124286D01*
X186692571Y-108624286D02*
X186692571Y-109195715D01*
X186192571Y-108838572D02*
X187478286Y-108838572D01*
X187621143Y-108910000D01*
X187692571Y-109052858D01*
X187692571Y-109195715D01*
X186692571Y-109481429D02*
X186692571Y-110052858D01*
X186192571Y-109695715D02*
X187478286Y-109695715D01*
X187621143Y-109767143D01*
X187692571Y-109910001D01*
X187692571Y-110052858D01*
X187692571Y-110552858D02*
X186192571Y-110552858D01*
X187692571Y-111195715D02*
X186906857Y-111195715D01*
X186764000Y-111124286D01*
X186692571Y-110981429D01*
X186692571Y-110767144D01*
X186764000Y-110624286D01*
X186835429Y-110552858D01*
X187621143Y-112481429D02*
X187692571Y-112338572D01*
X187692571Y-112052858D01*
X187621143Y-111910001D01*
X187478286Y-111838572D01*
X186906857Y-111838572D01*
X186764000Y-111910001D01*
X186692571Y-112052858D01*
X186692571Y-112338572D01*
X186764000Y-112481429D01*
X186906857Y-112552858D01*
X187049714Y-112552858D01*
X187192571Y-111838572D01*
X186692571Y-113052858D02*
X187692571Y-113338572D01*
X186978286Y-113624286D01*
X187692571Y-113910001D01*
X186692571Y-114195715D01*
X187692571Y-115910001D02*
X186192571Y-115910001D01*
X186192571Y-116481429D01*
X186264000Y-116624287D01*
X186335429Y-116695715D01*
X186478286Y-116767144D01*
X186692571Y-116767144D01*
X186835429Y-116695715D01*
X186906857Y-116624287D01*
X186978286Y-116481429D01*
X186978286Y-115910001D01*
X187621143Y-117981429D02*
X187692571Y-117838572D01*
X187692571Y-117552858D01*
X187621143Y-117410001D01*
X187478286Y-117338572D01*
X186906857Y-117338572D01*
X186764000Y-117410001D01*
X186692571Y-117552858D01*
X186692571Y-117838572D01*
X186764000Y-117981429D01*
X186906857Y-118052858D01*
X187049714Y-118052858D01*
X187192571Y-117338572D01*
X186692571Y-118481429D02*
X186692571Y-119052858D01*
X186192571Y-118695715D02*
X187478286Y-118695715D01*
X187621143Y-118767143D01*
X187692571Y-118910001D01*
X187692571Y-119052858D01*
X187692571Y-119552858D02*
X186692571Y-119552858D01*
X186978286Y-119552858D02*
X186835429Y-119624286D01*
X186764000Y-119695715D01*
X186692571Y-119838572D01*
X186692571Y-119981429D01*
X187692571Y-120695715D02*
X187621143Y-120552857D01*
X187549714Y-120481429D01*
X187406857Y-120410000D01*
X186978286Y-120410000D01*
X186835429Y-120481429D01*
X186764000Y-120552857D01*
X186692571Y-120695715D01*
X186692571Y-120910000D01*
X186764000Y-121052857D01*
X186835429Y-121124286D01*
X186978286Y-121195715D01*
X187406857Y-121195715D01*
X187549714Y-121124286D01*
X187621143Y-121052857D01*
X187692571Y-120910000D01*
X187692571Y-120695715D01*
X186692571Y-121624286D02*
X186692571Y-122195715D01*
X187692571Y-121838572D02*
X186406857Y-121838572D01*
X186264000Y-121910000D01*
X186192571Y-122052858D01*
X186192571Y-122195715D01*
X186692571Y-122481429D02*
X186692571Y-123052858D01*
X187692571Y-122695715D02*
X186406857Y-122695715D01*
X186264000Y-122767143D01*
X186192571Y-122910001D01*
X186192571Y-123052858D01*
X190092571Y-105767143D02*
X188592571Y-105767143D01*
X190092571Y-106410000D02*
X189306857Y-106410000D01*
X189164000Y-106338571D01*
X189092571Y-106195714D01*
X189092571Y-105981429D01*
X189164000Y-105838571D01*
X189235429Y-105767143D01*
X189092571Y-106910000D02*
X189092571Y-107481429D01*
X188592571Y-107124286D02*
X189878286Y-107124286D01*
X190021143Y-107195714D01*
X190092571Y-107338572D01*
X190092571Y-107481429D01*
X189092571Y-107767143D02*
X189092571Y-108338572D01*
X188592571Y-107981429D02*
X189878286Y-107981429D01*
X190021143Y-108052857D01*
X190092571Y-108195715D01*
X190092571Y-108338572D01*
X189092571Y-108838572D02*
X190592571Y-108838572D01*
X189164000Y-108838572D02*
X189092571Y-108981429D01*
X189092571Y-109267143D01*
X189164000Y-109410000D01*
X189235429Y-109481429D01*
X189378286Y-109552858D01*
X189806857Y-109552858D01*
X189949714Y-109481429D01*
X190021143Y-109410000D01*
X190092571Y-109267143D01*
X190092571Y-108981429D01*
X190021143Y-108838572D01*
X189949714Y-110195715D02*
X190021143Y-110267143D01*
X190092571Y-110195715D01*
X190021143Y-110124286D01*
X189949714Y-110195715D01*
X190092571Y-110195715D01*
X189164000Y-110195715D02*
X189235429Y-110267143D01*
X189306857Y-110195715D01*
X189235429Y-110124286D01*
X189164000Y-110195715D01*
X189306857Y-110195715D01*
X188521143Y-111981429D02*
X190449714Y-110695715D01*
X188521143Y-113552858D02*
X190449714Y-112267144D01*
X190092571Y-114052859D02*
X189092571Y-114052859D01*
X189235429Y-114052859D02*
X189164000Y-114124287D01*
X189092571Y-114267145D01*
X189092571Y-114481430D01*
X189164000Y-114624287D01*
X189306857Y-114695716D01*
X190092571Y-114695716D01*
X189306857Y-114695716D02*
X189164000Y-114767145D01*
X189092571Y-114910002D01*
X189092571Y-115124287D01*
X189164000Y-115267145D01*
X189306857Y-115338573D01*
X190092571Y-115338573D01*
X189092571Y-116052859D02*
X190592571Y-116052859D01*
X189164000Y-116052859D02*
X189092571Y-116195716D01*
X189092571Y-116481430D01*
X189164000Y-116624287D01*
X189235429Y-116695716D01*
X189378286Y-116767145D01*
X189806857Y-116767145D01*
X189949714Y-116695716D01*
X190021143Y-116624287D01*
X190092571Y-116481430D01*
X190092571Y-116195716D01*
X190021143Y-116052859D01*
X190021143Y-117981430D02*
X190092571Y-117838573D01*
X190092571Y-117552859D01*
X190021143Y-117410002D01*
X189878286Y-117338573D01*
X189306857Y-117338573D01*
X189164000Y-117410002D01*
X189092571Y-117552859D01*
X189092571Y-117838573D01*
X189164000Y-117981430D01*
X189306857Y-118052859D01*
X189449714Y-118052859D01*
X189592571Y-117338573D01*
X189092571Y-118481430D02*
X189092571Y-119052859D01*
X188592571Y-118695716D02*
X189878286Y-118695716D01*
X190021143Y-118767144D01*
X190092571Y-118910002D01*
X190092571Y-119052859D01*
X190092571Y-119552859D02*
X189092571Y-119552859D01*
X189378286Y-119552859D02*
X189235429Y-119624287D01*
X189164000Y-119695716D01*
X189092571Y-119838573D01*
X189092571Y-119981430D01*
X190092571Y-120695716D02*
X190021143Y-120552858D01*
X189949714Y-120481430D01*
X189806857Y-120410001D01*
X189378286Y-120410001D01*
X189235429Y-120481430D01*
X189164000Y-120552858D01*
X189092571Y-120695716D01*
X189092571Y-120910001D01*
X189164000Y-121052858D01*
X189235429Y-121124287D01*
X189378286Y-121195716D01*
X189806857Y-121195716D01*
X189949714Y-121124287D01*
X190021143Y-121052858D01*
X190092571Y-120910001D01*
X190092571Y-120695716D01*
X189092571Y-121624287D02*
X189092571Y-122195716D01*
X190092571Y-121838573D02*
X188806857Y-121838573D01*
X188664000Y-121910001D01*
X188592571Y-122052859D01*
X188592571Y-122195716D01*
X189092571Y-122481430D02*
X189092571Y-123052859D01*
X190092571Y-122695716D02*
X188806857Y-122695716D01*
X188664000Y-122767144D01*
X188592571Y-122910002D01*
X188592571Y-123052859D01*
X189949714Y-123552859D02*
X190021143Y-123624287D01*
X190092571Y-123552859D01*
X190021143Y-123481430D01*
X189949714Y-123552859D01*
X190092571Y-123552859D01*
X189092571Y-124267145D02*
X190092571Y-124267145D01*
X189235429Y-124267145D02*
X189164000Y-124338573D01*
X189092571Y-124481431D01*
X189092571Y-124695716D01*
X189164000Y-124838573D01*
X189306857Y-124910002D01*
X190092571Y-124910002D01*
X190021143Y-126195716D02*
X190092571Y-126052859D01*
X190092571Y-125767145D01*
X190021143Y-125624288D01*
X189878286Y-125552859D01*
X189306857Y-125552859D01*
X189164000Y-125624288D01*
X189092571Y-125767145D01*
X189092571Y-126052859D01*
X189164000Y-126195716D01*
X189306857Y-126267145D01*
X189449714Y-126267145D01*
X189592571Y-125552859D01*
X189092571Y-126695716D02*
X189092571Y-127267145D01*
X188592571Y-126910002D02*
X189878286Y-126910002D01*
X190021143Y-126981430D01*
X190092571Y-127124288D01*
X190092571Y-127267145D01*
X188521143Y-128838573D02*
X190449714Y-127552859D01*
X163194571Y-106481429D02*
X163194571Y-105767143D01*
X161694571Y-105767143D01*
X163194571Y-106981429D02*
X162194571Y-106981429D01*
X161694571Y-106981429D02*
X161766000Y-106910000D01*
X161837429Y-106981429D01*
X161766000Y-107052857D01*
X161694571Y-106981429D01*
X161837429Y-106981429D01*
X162194571Y-108338572D02*
X163408857Y-108338572D01*
X163551714Y-108267143D01*
X163623143Y-108195715D01*
X163694571Y-108052858D01*
X163694571Y-107838572D01*
X163623143Y-107695715D01*
X163123143Y-108338572D02*
X163194571Y-108195715D01*
X163194571Y-107910001D01*
X163123143Y-107767143D01*
X163051714Y-107695715D01*
X162908857Y-107624286D01*
X162480286Y-107624286D01*
X162337429Y-107695715D01*
X162266000Y-107767143D01*
X162194571Y-107910001D01*
X162194571Y-108195715D01*
X162266000Y-108338572D01*
X163194571Y-109052858D02*
X161694571Y-109052858D01*
X163194571Y-109695715D02*
X162408857Y-109695715D01*
X162266000Y-109624286D01*
X162194571Y-109481429D01*
X162194571Y-109267144D01*
X162266000Y-109124286D01*
X162337429Y-109052858D01*
X162194571Y-110195715D02*
X162194571Y-110767144D01*
X161694571Y-110410001D02*
X162980286Y-110410001D01*
X163123143Y-110481429D01*
X163194571Y-110624287D01*
X163194571Y-110767144D01*
X161694571Y-112267144D02*
X163194571Y-112624287D01*
X162123143Y-112910001D01*
X163194571Y-113195715D01*
X161694571Y-113552858D01*
X163194571Y-114767144D02*
X162408857Y-114767144D01*
X162266000Y-114695715D01*
X162194571Y-114552858D01*
X162194571Y-114267144D01*
X162266000Y-114124287D01*
X163123143Y-114767144D02*
X163194571Y-114624287D01*
X163194571Y-114267144D01*
X163123143Y-114124287D01*
X162980286Y-114052858D01*
X162837429Y-114052858D01*
X162694571Y-114124287D01*
X162623143Y-114267144D01*
X162623143Y-114624287D01*
X162551714Y-114767144D01*
X162194571Y-115481430D02*
X163194571Y-115481430D01*
X162337429Y-115481430D02*
X162266000Y-115552858D01*
X162194571Y-115695716D01*
X162194571Y-115910001D01*
X162266000Y-116052858D01*
X162408857Y-116124287D01*
X163194571Y-116124287D01*
X163194571Y-117481430D02*
X161694571Y-117481430D01*
X163123143Y-117481430D02*
X163194571Y-117338573D01*
X163194571Y-117052859D01*
X163123143Y-116910001D01*
X163051714Y-116838573D01*
X162908857Y-116767144D01*
X162480286Y-116767144D01*
X162337429Y-116838573D01*
X162266000Y-116910001D01*
X162194571Y-117052859D01*
X162194571Y-117338573D01*
X162266000Y-117481430D01*
X165451714Y-106624286D02*
X165523143Y-106552857D01*
X165594571Y-106338571D01*
X165594571Y-106195714D01*
X165523143Y-105981429D01*
X165380286Y-105838571D01*
X165237429Y-105767143D01*
X164951714Y-105695714D01*
X164737429Y-105695714D01*
X164451714Y-105767143D01*
X164308857Y-105838571D01*
X164166000Y-105981429D01*
X164094571Y-106195714D01*
X164094571Y-106338571D01*
X164166000Y-106552857D01*
X164237429Y-106624286D01*
X165594571Y-107481429D02*
X165523143Y-107338571D01*
X165451714Y-107267143D01*
X165308857Y-107195714D01*
X164880286Y-107195714D01*
X164737429Y-107267143D01*
X164666000Y-107338571D01*
X164594571Y-107481429D01*
X164594571Y-107695714D01*
X164666000Y-107838571D01*
X164737429Y-107910000D01*
X164880286Y-107981429D01*
X165308857Y-107981429D01*
X165451714Y-107910000D01*
X165523143Y-107838571D01*
X165594571Y-107695714D01*
X165594571Y-107481429D01*
X164594571Y-108624286D02*
X165594571Y-108624286D01*
X164737429Y-108624286D02*
X164666000Y-108695714D01*
X164594571Y-108838572D01*
X164594571Y-109052857D01*
X164666000Y-109195714D01*
X164808857Y-109267143D01*
X165594571Y-109267143D01*
X164594571Y-109767143D02*
X164594571Y-110338572D01*
X164094571Y-109981429D02*
X165380286Y-109981429D01*
X165523143Y-110052857D01*
X165594571Y-110195715D01*
X165594571Y-110338572D01*
X165594571Y-110838572D02*
X164594571Y-110838572D01*
X164880286Y-110838572D02*
X164737429Y-110910000D01*
X164666000Y-110981429D01*
X164594571Y-111124286D01*
X164594571Y-111267143D01*
X165594571Y-111981429D02*
X165523143Y-111838571D01*
X165451714Y-111767143D01*
X165308857Y-111695714D01*
X164880286Y-111695714D01*
X164737429Y-111767143D01*
X164666000Y-111838571D01*
X164594571Y-111981429D01*
X164594571Y-112195714D01*
X164666000Y-112338571D01*
X164737429Y-112410000D01*
X164880286Y-112481429D01*
X165308857Y-112481429D01*
X165451714Y-112410000D01*
X165523143Y-112338571D01*
X165594571Y-112195714D01*
X165594571Y-111981429D01*
X165594571Y-113338572D02*
X165523143Y-113195714D01*
X165380286Y-113124286D01*
X164094571Y-113124286D01*
X164808857Y-115552857D02*
X164880286Y-115767143D01*
X164951714Y-115838571D01*
X165094571Y-115910000D01*
X165308857Y-115910000D01*
X165451714Y-115838571D01*
X165523143Y-115767143D01*
X165594571Y-115624285D01*
X165594571Y-115052857D01*
X164094571Y-115052857D01*
X164094571Y-115552857D01*
X164166000Y-115695714D01*
X164237429Y-115767143D01*
X164380286Y-115838571D01*
X164523143Y-115838571D01*
X164666000Y-115767143D01*
X164737429Y-115695714D01*
X164808857Y-115552857D01*
X164808857Y-115052857D01*
X165594571Y-116767143D02*
X165523143Y-116624285D01*
X165451714Y-116552857D01*
X165308857Y-116481428D01*
X164880286Y-116481428D01*
X164737429Y-116552857D01*
X164666000Y-116624285D01*
X164594571Y-116767143D01*
X164594571Y-116981428D01*
X164666000Y-117124285D01*
X164737429Y-117195714D01*
X164880286Y-117267143D01*
X165308857Y-117267143D01*
X165451714Y-117195714D01*
X165523143Y-117124285D01*
X165594571Y-116981428D01*
X165594571Y-116767143D01*
X165594571Y-118552857D02*
X164808857Y-118552857D01*
X164666000Y-118481428D01*
X164594571Y-118338571D01*
X164594571Y-118052857D01*
X164666000Y-117910000D01*
X165523143Y-118552857D02*
X165594571Y-118410000D01*
X165594571Y-118052857D01*
X165523143Y-117910000D01*
X165380286Y-117838571D01*
X165237429Y-117838571D01*
X165094571Y-117910000D01*
X165023143Y-118052857D01*
X165023143Y-118410000D01*
X164951714Y-118552857D01*
X165594571Y-119267143D02*
X164594571Y-119267143D01*
X164880286Y-119267143D02*
X164737429Y-119338571D01*
X164666000Y-119410000D01*
X164594571Y-119552857D01*
X164594571Y-119695714D01*
X165594571Y-120838571D02*
X164094571Y-120838571D01*
X165523143Y-120838571D02*
X165594571Y-120695714D01*
X165594571Y-120410000D01*
X165523143Y-120267142D01*
X165451714Y-120195714D01*
X165308857Y-120124285D01*
X164880286Y-120124285D01*
X164737429Y-120195714D01*
X164666000Y-120267142D01*
X164594571Y-120410000D01*
X164594571Y-120695714D01*
X164666000Y-120838571D01*
X170394571Y-106624286D02*
X169680286Y-106124286D01*
X170394571Y-105767143D02*
X168894571Y-105767143D01*
X168894571Y-106338571D01*
X168966000Y-106481429D01*
X169037429Y-106552857D01*
X169180286Y-106624286D01*
X169394571Y-106624286D01*
X169537429Y-106552857D01*
X169608857Y-106481429D01*
X169680286Y-106338571D01*
X169680286Y-105767143D01*
X170323143Y-107838571D02*
X170394571Y-107695714D01*
X170394571Y-107410000D01*
X170323143Y-107267143D01*
X170180286Y-107195714D01*
X169608857Y-107195714D01*
X169466000Y-107267143D01*
X169394571Y-107410000D01*
X169394571Y-107695714D01*
X169466000Y-107838571D01*
X169608857Y-107910000D01*
X169751714Y-107910000D01*
X169894571Y-107195714D01*
X169394571Y-108410000D02*
X170394571Y-108767143D01*
X169394571Y-109124285D01*
X170251714Y-109695714D02*
X170323143Y-109767142D01*
X170394571Y-109695714D01*
X170323143Y-109624285D01*
X170251714Y-109695714D01*
X170394571Y-109695714D01*
X170394571Y-112338571D02*
X170394571Y-111481428D01*
X170394571Y-111910000D02*
X168894571Y-111910000D01*
X169108857Y-111767143D01*
X169251714Y-111624285D01*
X169323143Y-111481428D01*
X170251714Y-112981428D02*
X170323143Y-113052856D01*
X170394571Y-112981428D01*
X170323143Y-112909999D01*
X170251714Y-112981428D01*
X170394571Y-112981428D01*
X170394571Y-114481428D02*
X170394571Y-113624285D01*
X170394571Y-114052857D02*
X168894571Y-114052857D01*
X169108857Y-113910000D01*
X169251714Y-113767142D01*
X169323143Y-113624285D01*
X170323143Y-115195713D02*
X170394571Y-115195713D01*
X170537429Y-115124285D01*
X170608857Y-115052856D01*
X169037429Y-116909999D02*
X168966000Y-116981428D01*
X168894571Y-117124285D01*
X168894571Y-117481428D01*
X168966000Y-117624285D01*
X169037429Y-117695714D01*
X169180286Y-117767142D01*
X169323143Y-117767142D01*
X169537429Y-117695714D01*
X170394571Y-116838571D01*
X170394571Y-117767142D01*
X168894571Y-118695713D02*
X168894571Y-118838570D01*
X168966000Y-118981427D01*
X169037429Y-119052856D01*
X169180286Y-119124285D01*
X169466000Y-119195713D01*
X169823143Y-119195713D01*
X170108857Y-119124285D01*
X170251714Y-119052856D01*
X170323143Y-118981427D01*
X170394571Y-118838570D01*
X170394571Y-118695713D01*
X170323143Y-118552856D01*
X170251714Y-118481427D01*
X170108857Y-118409999D01*
X169823143Y-118338570D01*
X169466000Y-118338570D01*
X169180286Y-118409999D01*
X169037429Y-118481427D01*
X168966000Y-118552856D01*
X168894571Y-118695713D01*
X170394571Y-120624284D02*
X170394571Y-119767141D01*
X170394571Y-120195713D02*
X168894571Y-120195713D01*
X169108857Y-120052856D01*
X169251714Y-119909998D01*
X169323143Y-119767141D01*
X169394571Y-121909998D02*
X170394571Y-121909998D01*
X168823143Y-121552855D02*
X169894571Y-121195712D01*
X169894571Y-122124284D01*
X169823143Y-122695712D02*
X169823143Y-123838569D01*
X170394571Y-125338569D02*
X170394571Y-124481426D01*
X170394571Y-124909998D02*
X168894571Y-124909998D01*
X169108857Y-124767141D01*
X169251714Y-124624283D01*
X169323143Y-124481426D01*
X170394571Y-126767140D02*
X170394571Y-125909997D01*
X170394571Y-126338569D02*
X168894571Y-126338569D01*
X169108857Y-126195712D01*
X169251714Y-126052854D01*
X169323143Y-125909997D01*
D12*
X179219860Y-110380780D02*
X180690520Y-110741460D01*
X180690520Y-110741460D02*
X179628800Y-111020860D01*
X179628800Y-111020860D02*
X180700680Y-111330740D01*
X180700680Y-111330740D02*
X179250340Y-111671100D01*
X179910740Y-108960920D02*
X179900580Y-109750860D01*
X179900580Y-109750860D02*
X179910740Y-109761020D01*
X179910740Y-109761020D02*
X179900580Y-109761020D01*
X179189380Y-109801660D02*
X180731160Y-109801660D01*
X179179220Y-108912660D02*
X180748940Y-108912660D01*
X180748940Y-108912660D02*
X180738780Y-108922820D01*
X179280820Y-108361480D02*
X179199540Y-108010960D01*
X179199540Y-108010960D02*
X179189380Y-107690920D01*
X179189380Y-107690920D02*
X179390040Y-107452160D01*
X179390040Y-107452160D02*
X179659280Y-107421680D01*
X179659280Y-107421680D02*
X179900580Y-107662980D01*
X179900580Y-107662980D02*
X180030120Y-108051600D01*
X180030120Y-108051600D02*
X180190140Y-108231940D01*
X180190140Y-108231940D02*
X180489860Y-108272580D01*
X180489860Y-108272580D02*
X180710840Y-108041440D01*
X180710840Y-108041440D02*
X180738780Y-107721400D01*
X180738780Y-107721400D02*
X180629560Y-107370880D01*
X179179220Y-106332020D02*
X179199540Y-106083100D01*
X179199540Y-106083100D02*
X179440840Y-105841800D01*
X179440840Y-105841800D02*
X179931060Y-105752900D01*
X179931060Y-105752900D02*
X180279040Y-105780840D01*
X180279040Y-105780840D02*
X180599080Y-105981500D01*
X180599080Y-105981500D02*
X180721000Y-106232960D01*
X180721000Y-106232960D02*
X180649880Y-106542840D01*
X180649880Y-106542840D02*
X180469540Y-106761280D01*
X180469540Y-106761280D02*
X180009800Y-106832400D01*
X180009800Y-106832400D02*
X179600860Y-106781600D01*
X179600860Y-106781600D02*
X179318920Y-106672380D01*
X179318920Y-106672380D02*
X179189380Y-106311700D01*
X177459640Y-106931460D02*
X178020980Y-106672380D01*
X178020980Y-106672380D02*
X178539140Y-107210860D01*
X178539140Y-107210860D02*
X178269900Y-107731560D01*
X178269900Y-107731560D02*
X178429920Y-108010960D01*
X178409600Y-109451140D02*
X178219100Y-109781340D01*
X178219100Y-109781340D02*
X178549300Y-110220760D01*
X178549300Y-110220760D02*
X178059080Y-110693200D01*
X178059080Y-110693200D02*
X177579020Y-110411260D01*
X177579020Y-110411260D02*
X177109120Y-110601760D01*
X177109120Y-110601760D02*
X176921160Y-111211360D01*
X176921160Y-111211360D02*
X176240440Y-111211360D01*
X176240440Y-111211360D02*
X176100740Y-110652560D01*
X176100740Y-110652560D02*
X175529240Y-110451900D01*
X175529240Y-110451900D02*
X175059340Y-110721140D01*
X175059340Y-110721140D02*
X174548800Y-110251240D01*
X174548800Y-110251240D02*
X174810420Y-109733080D01*
X174810420Y-109733080D02*
X174609760Y-109263180D01*
X174609760Y-109263180D02*
X174068740Y-109093000D01*
X174068740Y-109093000D02*
X174050960Y-108402120D01*
X174050960Y-108402120D02*
X174599600Y-108191300D01*
X174599600Y-108191300D02*
X174769780Y-107772200D01*
X174769780Y-107772200D02*
X174500540Y-107221020D01*
X174500540Y-107221020D02*
X175028860Y-106702860D01*
X175028860Y-106702860D02*
X175569880Y-106951780D01*
X175569880Y-106951780D02*
X176049940Y-106781600D01*
X176049940Y-106781600D02*
X176149000Y-106232960D01*
X176149000Y-106232960D02*
X176850040Y-106222800D01*
X176850040Y-106222800D02*
X177050700Y-106781600D01*
X177050700Y-106781600D02*
X177449480Y-106921300D01*
X177429160Y-109062520D02*
X177279300Y-109362240D01*
X177279300Y-109362240D02*
X177081180Y-109562900D01*
X177081180Y-109562900D02*
X176679860Y-109712760D01*
X176679860Y-109712760D02*
X176281080Y-109712760D01*
X176281080Y-109712760D02*
X175930560Y-109562900D01*
X175930560Y-109562900D02*
X175580040Y-109110780D01*
X175580040Y-109110780D02*
X175529240Y-108661200D01*
X175529240Y-108661200D02*
X175630840Y-108262420D01*
X175630840Y-108262420D02*
X175978820Y-107861100D01*
X175978820Y-107861100D02*
X176430940Y-107711240D01*
X176430940Y-107711240D02*
X176928780Y-107762040D01*
X176928780Y-107762040D02*
X177231040Y-108010960D01*
X177231040Y-108010960D02*
X177429160Y-108361480D01*
X177429160Y-108361480D02*
X178429920Y-108010960D01*
X177429160Y-109062520D02*
X178429920Y-109461300D01*
M02*
