%FSLAX46Y46*%
G04 Gerber Fmt 4.6, Leading zero omitted, Abs format (unit mm)*
G04 Created by KiCad (PCBNEW (2014-08-05 BZR 5054)-product) date Wed 12 Nov 2014 18:29:59 EST*
%MOMM*%
G01*
G04 APERTURE LIST*
%ADD10C,0.100000*%
%ADD11C,0.300000*%
%ADD12C,0.127000*%
%ADD13C,0.150000*%
%ADD14C,0.381000*%
G04 APERTURE END LIST*
D10*
D11*
X190277714Y-99159143D02*
X190492000Y-99230571D01*
X190849143Y-99230571D01*
X190992000Y-99159143D01*
X191063429Y-99087714D01*
X191134857Y-98944857D01*
X191134857Y-98802000D01*
X191063429Y-98659143D01*
X190992000Y-98587714D01*
X190849143Y-98516286D01*
X190563429Y-98444857D01*
X190420571Y-98373429D01*
X190349143Y-98302000D01*
X190277714Y-98159143D01*
X190277714Y-98016286D01*
X190349143Y-97873429D01*
X190420571Y-97802000D01*
X190563429Y-97730571D01*
X190920571Y-97730571D01*
X191134857Y-97802000D01*
X191634857Y-97730571D02*
X191992000Y-99230571D01*
X192277714Y-98159143D01*
X192563428Y-99230571D01*
X192920571Y-97730571D01*
X193492000Y-99230571D02*
X193492000Y-97730571D01*
X193849143Y-97730571D01*
X194063428Y-97802000D01*
X194206286Y-97944857D01*
X194277714Y-98087714D01*
X194349143Y-98373429D01*
X194349143Y-98587714D01*
X194277714Y-98873429D01*
X194206286Y-99016286D01*
X194063428Y-99159143D01*
X193849143Y-99230571D01*
X193492000Y-99230571D01*
X158853143Y-104818571D02*
X158853143Y-103818571D01*
X158853143Y-103961429D02*
X158924571Y-103890000D01*
X159067429Y-103818571D01*
X159281714Y-103818571D01*
X159424571Y-103890000D01*
X159496000Y-104032857D01*
X159496000Y-104818571D01*
X159496000Y-104032857D02*
X159567429Y-103890000D01*
X159710286Y-103818571D01*
X159924571Y-103818571D01*
X160067429Y-103890000D01*
X160138857Y-104032857D01*
X160138857Y-104818571D01*
X160853143Y-104818571D02*
X160853143Y-103818571D01*
X160853143Y-103318571D02*
X160781714Y-103390000D01*
X160853143Y-103461429D01*
X160924571Y-103390000D01*
X160853143Y-103318571D01*
X160853143Y-103461429D01*
X162210286Y-104747143D02*
X162067429Y-104818571D01*
X161781715Y-104818571D01*
X161638857Y-104747143D01*
X161567429Y-104675714D01*
X161496000Y-104532857D01*
X161496000Y-104104286D01*
X161567429Y-103961429D01*
X161638857Y-103890000D01*
X161781715Y-103818571D01*
X162067429Y-103818571D01*
X162210286Y-103890000D01*
X162853143Y-104818571D02*
X162853143Y-103818571D01*
X162853143Y-104104286D02*
X162924571Y-103961429D01*
X162996000Y-103890000D01*
X163138857Y-103818571D01*
X163281714Y-103818571D01*
X163996000Y-104818571D02*
X163853142Y-104747143D01*
X163781714Y-104675714D01*
X163710285Y-104532857D01*
X163710285Y-104104286D01*
X163781714Y-103961429D01*
X163853142Y-103890000D01*
X163996000Y-103818571D01*
X164210285Y-103818571D01*
X164353142Y-103890000D01*
X164424571Y-103961429D01*
X164496000Y-104104286D01*
X164496000Y-104532857D01*
X164424571Y-104675714D01*
X164353142Y-104747143D01*
X164210285Y-104818571D01*
X163996000Y-104818571D01*
X165067428Y-104747143D02*
X165281714Y-104818571D01*
X165638857Y-104818571D01*
X165781714Y-104747143D01*
X165853143Y-104675714D01*
X165924571Y-104532857D01*
X165924571Y-104390000D01*
X165853143Y-104247143D01*
X165781714Y-104175714D01*
X165638857Y-104104286D01*
X165353143Y-104032857D01*
X165210285Y-103961429D01*
X165138857Y-103890000D01*
X165067428Y-103747143D01*
X165067428Y-103604286D01*
X165138857Y-103461429D01*
X165210285Y-103390000D01*
X165353143Y-103318571D01*
X165710285Y-103318571D01*
X165924571Y-103390000D01*
X166567428Y-104818571D02*
X166567428Y-103318571D01*
X166924571Y-103318571D01*
X167138856Y-103390000D01*
X167281714Y-103532857D01*
X167353142Y-103675714D01*
X167424571Y-103961429D01*
X167424571Y-104175714D01*
X167353142Y-104461429D01*
X167281714Y-104604286D01*
X167138856Y-104747143D01*
X166924571Y-104818571D01*
X166567428Y-104818571D01*
X195882000Y-107612571D02*
X195167714Y-107612571D01*
X195167714Y-106112571D01*
X196382000Y-106826857D02*
X196882000Y-106826857D01*
X197096286Y-107612571D02*
X196382000Y-107612571D01*
X196382000Y-106112571D01*
X197096286Y-106112571D01*
X197739143Y-107612571D02*
X197739143Y-106112571D01*
X198096286Y-106112571D01*
X198310571Y-106184000D01*
X198453429Y-106326857D01*
X198524857Y-106469714D01*
X198596286Y-106755429D01*
X198596286Y-106969714D01*
X198524857Y-107255429D01*
X198453429Y-107398286D01*
X198310571Y-107541143D01*
X198096286Y-107612571D01*
X197739143Y-107612571D01*
X202057143Y-100342000D02*
X201914286Y-100270571D01*
X201700000Y-100270571D01*
X201485715Y-100342000D01*
X201342857Y-100484857D01*
X201271429Y-100627714D01*
X201200000Y-100913429D01*
X201200000Y-101127714D01*
X201271429Y-101413429D01*
X201342857Y-101556286D01*
X201485715Y-101699143D01*
X201700000Y-101770571D01*
X201842857Y-101770571D01*
X202057143Y-101699143D01*
X202128572Y-101627714D01*
X202128572Y-101127714D01*
X201842857Y-101127714D01*
X202771429Y-101770571D02*
X202771429Y-100270571D01*
X203628572Y-101770571D01*
X203628572Y-100270571D01*
X204342858Y-101770571D02*
X204342858Y-100270571D01*
X204700001Y-100270571D01*
X204914286Y-100342000D01*
X205057144Y-100484857D01*
X205128572Y-100627714D01*
X205200001Y-100913429D01*
X205200001Y-101127714D01*
X205128572Y-101413429D01*
X205057144Y-101556286D01*
X204914286Y-101699143D01*
X204700001Y-101770571D01*
X204342858Y-101770571D01*
X201271429Y-118979143D02*
X202414286Y-118979143D01*
X201842857Y-119550571D02*
X201842857Y-118407714D01*
X203842858Y-118050571D02*
X203128572Y-118050571D01*
X203057143Y-118764857D01*
X203128572Y-118693429D01*
X203271429Y-118622000D01*
X203628572Y-118622000D01*
X203771429Y-118693429D01*
X203842858Y-118764857D01*
X203914286Y-118907714D01*
X203914286Y-119264857D01*
X203842858Y-119407714D01*
X203771429Y-119479143D01*
X203628572Y-119550571D01*
X203271429Y-119550571D01*
X203128572Y-119479143D01*
X203057143Y-119407714D01*
X204342857Y-118050571D02*
X204842857Y-119550571D01*
X205342857Y-118050571D01*
X196627715Y-122868571D02*
X196627715Y-123868571D01*
X196270572Y-122297143D02*
X195913429Y-123368571D01*
X196842001Y-123368571D01*
X183396001Y-122368571D02*
X184324572Y-122368571D01*
X183824572Y-122940000D01*
X184038858Y-122940000D01*
X184181715Y-123011429D01*
X184253144Y-123082857D01*
X184324572Y-123225714D01*
X184324572Y-123582857D01*
X184253144Y-123725714D01*
X184181715Y-123797143D01*
X184038858Y-123868571D01*
X183610286Y-123868571D01*
X183467429Y-123797143D01*
X183396001Y-123725714D01*
X171021429Y-122511429D02*
X171092858Y-122440000D01*
X171235715Y-122368571D01*
X171592858Y-122368571D01*
X171735715Y-122440000D01*
X171807144Y-122511429D01*
X171878572Y-122654286D01*
X171878572Y-122797143D01*
X171807144Y-123011429D01*
X170950001Y-123868571D01*
X171878572Y-123868571D01*
X159432572Y-123868571D02*
X158575429Y-123868571D01*
X159004001Y-123868571D02*
X159004001Y-122368571D01*
X158861144Y-122582857D01*
X158718286Y-122725714D01*
X158575429Y-122797143D01*
D12*
X179451000Y-104775000D02*
X177165000Y-104775000D01*
X177165000Y-104775000D02*
X177165000Y-103505000D01*
X177165000Y-103505000D02*
X179451000Y-103505000D01*
X179451000Y-103505000D02*
X179451000Y-104775000D01*
X177165000Y-116459000D02*
X177165000Y-114173000D01*
X177165000Y-114173000D02*
X178435000Y-114173000D01*
X178435000Y-114173000D02*
X178435000Y-116459000D01*
X178435000Y-116459000D02*
X177165000Y-116459000D01*
X192913000Y-115697000D02*
X192913000Y-113411000D01*
X192913000Y-113411000D02*
X194183000Y-113411000D01*
X194183000Y-113411000D02*
X194183000Y-115697000D01*
X194183000Y-115697000D02*
X192913000Y-115697000D01*
X192913000Y-110109000D02*
X192913000Y-107823000D01*
X192913000Y-107823000D02*
X194183000Y-107823000D01*
X194183000Y-107823000D02*
X194183000Y-110109000D01*
X194183000Y-110109000D02*
X192913000Y-110109000D01*
X183769000Y-104775000D02*
X181483000Y-104775000D01*
X181483000Y-104775000D02*
X181483000Y-103505000D01*
X181483000Y-103505000D02*
X183769000Y-103505000D01*
X183769000Y-103505000D02*
X183769000Y-104775000D01*
X194691000Y-115697000D02*
X194691000Y-113411000D01*
X194691000Y-113411000D02*
X195961000Y-113411000D01*
X195961000Y-113411000D02*
X195961000Y-115697000D01*
X195961000Y-115697000D02*
X194691000Y-115697000D01*
X168783000Y-103505000D02*
X171069000Y-103505000D01*
X171069000Y-103505000D02*
X171069000Y-104775000D01*
X171069000Y-104775000D02*
X168783000Y-104775000D01*
X168783000Y-104775000D02*
X168783000Y-103505000D01*
X197231000Y-103251000D02*
X197231000Y-100965000D01*
X197231000Y-100965000D02*
X198501000Y-100965000D01*
X198501000Y-100965000D02*
X198501000Y-103251000D01*
X198501000Y-103251000D02*
X197231000Y-103251000D01*
X192405000Y-100965000D02*
X192405000Y-103251000D01*
X192405000Y-103251000D02*
X191135000Y-103251000D01*
X191135000Y-103251000D02*
X191135000Y-100965000D01*
X191135000Y-100965000D02*
X192405000Y-100965000D01*
X176657000Y-114173000D02*
X176657000Y-116459000D01*
X176657000Y-116459000D02*
X175387000Y-116459000D01*
X175387000Y-116459000D02*
X175387000Y-114173000D01*
X175387000Y-114173000D02*
X176657000Y-114173000D01*
D13*
X207200000Y-117482000D02*
X208200000Y-116482000D01*
X199200000Y-102482000D02*
X208200000Y-102482000D01*
X199200000Y-117482000D02*
X208200000Y-117482000D01*
X208200000Y-117482000D02*
X208200000Y-102482000D01*
X199200000Y-117482000D02*
X199200000Y-102482000D01*
D12*
X188531500Y-101981000D02*
X183845200Y-101981000D01*
X188531500Y-98171000D02*
X183845200Y-98171000D01*
X182664100Y-100799900D02*
X183845200Y-101981000D01*
X182664100Y-99352100D02*
X183845200Y-98171000D01*
X182664100Y-99352100D02*
G75*
G03X182664100Y-100799900I723900J-723900D01*
G74*
G01*
X189484000Y-99123500D02*
X189484000Y-101028500D01*
X188531500Y-101981000D02*
G75*
G03X189484000Y-101028500I0J952500D01*
G74*
G01*
X189484000Y-99123500D02*
G75*
G03X188531500Y-98171000I-952500J0D01*
G74*
G01*
D13*
X159092000Y-130770000D02*
X159092000Y-125770000D01*
X159096901Y-130780755D02*
G75*
G03X159092000Y-125770000I5495099J2510755D01*
G74*
G01*
X171538000Y-130770000D02*
X171538000Y-125770000D01*
X171542901Y-130780755D02*
G75*
G03X171538000Y-125770000I5495099J2510755D01*
G74*
G01*
X183984000Y-130770000D02*
X183984000Y-125770000D01*
X183988901Y-130780755D02*
G75*
G03X183984000Y-125770000I5495099J2510755D01*
G74*
G01*
X196430000Y-130770000D02*
X196430000Y-125770000D01*
X196434901Y-130780755D02*
G75*
G03X196430000Y-125770000I5495099J2510755D01*
G74*
G01*
X190849000Y-117189000D02*
X190849000Y-116114000D01*
X180499000Y-117189000D02*
X180499000Y-116114000D01*
X180499000Y-106839000D02*
X180499000Y-107914000D01*
X190849000Y-106839000D02*
X190849000Y-107914000D01*
X190849000Y-117189000D02*
X189774000Y-117189000D01*
X190849000Y-106839000D02*
X189774000Y-106839000D01*
X180499000Y-106839000D02*
X181574000Y-106839000D01*
X180499000Y-117189000D02*
X181574000Y-117189000D01*
X190849000Y-116114000D02*
X191874000Y-116114000D01*
D12*
X196342000Y-101219000D02*
X196342000Y-102997000D01*
X196342000Y-102997000D02*
X193294000Y-102997000D01*
X193294000Y-102997000D02*
X193294000Y-101219000D01*
X193294000Y-101219000D02*
X196342000Y-101219000D01*
D13*
X196896000Y-112098000D02*
X196896000Y-111798000D01*
X196896000Y-111798000D02*
X197196000Y-111798000D01*
X197196000Y-109898000D02*
X195996000Y-109898000D01*
X195996000Y-112098000D02*
X197196000Y-112098000D01*
X197196000Y-112098000D02*
X197196000Y-109898000D01*
X195996000Y-109898000D02*
X195996000Y-112098000D01*
X160116000Y-106292000D02*
X174116000Y-106292000D01*
X174116000Y-106292000D02*
X174116000Y-107792000D01*
X170616000Y-120292000D02*
X174116000Y-120292000D01*
X168616000Y-120292000D02*
X164616000Y-120292000D01*
X162616000Y-120292000D02*
X162116000Y-120292000D01*
X157616000Y-108292000D02*
X157616000Y-118792000D01*
D14*
X179077620Y-97576640D02*
X167378380Y-97576640D01*
X167378380Y-102575360D02*
X179077620Y-102575360D01*
X167378380Y-97576640D02*
X167378380Y-98425000D01*
X167378380Y-102575360D02*
X167378380Y-101727000D01*
X179077620Y-97576640D02*
X179077620Y-98425000D01*
X179077620Y-102575360D02*
X179077620Y-101727000D01*
D12*
X187071000Y-103505000D02*
X189357000Y-103505000D01*
X189357000Y-103505000D02*
X189357000Y-104775000D01*
X189357000Y-104775000D02*
X187071000Y-104775000D01*
X187071000Y-104775000D02*
X187071000Y-103505000D01*
X198247000Y-109347000D02*
X195961000Y-109347000D01*
X195961000Y-109347000D02*
X195961000Y-108077000D01*
X195961000Y-108077000D02*
X198247000Y-108077000D01*
X198247000Y-108077000D02*
X198247000Y-109347000D01*
M02*
