M48
;DRILL file {kicad (2014-08-05 BZR 5054)-product} date Wed 12 Nov 2014 18:30:15 EST
;FORMAT={-:-/ absolute / inch / decimal}
FMAT,2
INCH,TZ
T1C0.025
T2C0.039
T3C0.039
T4C0.043
T5C0.051
%
G90
G05
M72
T1
X6.76Y-4.6
X6.78Y-4.53
X6.86Y-4.1
X6.92Y-4.4305
X7.Y-4.46
X7.12Y-4.67
X7.14Y-4.58
X7.15Y-4.46
X7.16Y-4.04
X7.17Y-4.25
X7.19Y-4.57
X7.25Y-4.05
X7.27Y-3.84
X7.2795Y-4.1335
X7.3099Y-4.2303
X7.32Y-3.84
X7.34Y-4.13
X7.37Y-3.84
X7.39Y-4.04
X7.51Y-4.1
X7.62Y-4.21
X7.65Y-4.38
X7.67Y-4.02
X7.79Y-3.94
X7.8309Y-4.3791
T2
X7.42Y-3.9
X7.42Y-3.98
T3
X7.22Y-3.94
T4
X6.3816Y-4.9516
X6.3816Y-5.1484
X6.5784Y-4.9516
X6.5784Y-5.1484
X6.8716Y-4.9516
X6.8716Y-5.1484
X7.0684Y-4.9516
X7.0684Y-5.1484
X7.3616Y-4.9516
X7.3616Y-5.1484
X7.5584Y-4.9516
X7.5584Y-5.1484
X7.8516Y-4.9516
X7.8516Y-5.1484
X8.0484Y-4.9516
X8.0484Y-5.1484
T5
X8.Y-4.1331
X8.Y-4.33
X8.Y-4.5269
T0
M30
