%FSLAX46Y46*%
G04 Gerber Fmt 4.6, Leading zero omitted, Abs format (unit mm)*
G04 Created by KiCad (PCBNEW (2014-08-05 BZR 5054)-product) date Wed 12 Nov 2014 18:29:59 EST*
%MOMM*%
G01*
G04 APERTURE LIST*
%ADD10C,0.100000*%
%ADD11C,2.300000*%
%ADD12C,2.200000*%
%ADD13C,0.889000*%
%ADD14C,0.203200*%
%ADD15C,0.609600*%
G04 APERTURE END LIST*
D10*
D11*
X203200000Y-114982000D03*
X203200000Y-109982000D03*
X203200000Y-104982000D03*
D12*
X162092000Y-125770000D03*
X167092000Y-125770000D03*
X167092000Y-130770000D03*
X162092000Y-130770000D03*
X174538000Y-125770000D03*
X179538000Y-125770000D03*
X179538000Y-130770000D03*
X174538000Y-130770000D03*
X186984000Y-125770000D03*
X191984000Y-125770000D03*
X191984000Y-130770000D03*
X186984000Y-130770000D03*
X199430000Y-125770000D03*
X204430000Y-125770000D03*
X204430000Y-130770000D03*
X199430000Y-130770000D03*
D13*
X198903842Y-111230158D03*
X194310000Y-111252000D03*
X197866000Y-100076000D03*
X190754000Y-104140000D03*
X193548000Y-106934000D03*
X194818000Y-102108000D03*
X171704000Y-116840000D03*
X181864000Y-102616000D03*
X174244000Y-104140000D03*
X181610000Y-113284000D03*
X187706000Y-102616000D03*
X184658000Y-97536000D03*
X184899320Y-104992022D03*
X184150000Y-102870000D03*
X182118000Y-107950000D03*
X185672665Y-107449786D03*
X185928000Y-97536000D03*
X186436000Y-104902000D03*
X187198000Y-97536000D03*
X175768000Y-112534690D03*
X181356000Y-116332000D03*
X172212000Y-115062000D03*
X180848000Y-118618000D03*
X177800000Y-113284000D03*
X182626000Y-116078000D03*
D14*
X184658000Y-97536000D02*
X184658000Y-98164617D01*
X184658000Y-98164617D02*
X184899320Y-98405937D01*
X184899320Y-98405937D02*
X184899320Y-104363405D01*
X184899320Y-104363405D02*
X184899320Y-104992022D01*
X184150000Y-105918000D02*
X182118000Y-107950000D01*
X184150000Y-102870000D02*
X184150000Y-105918000D01*
X185672665Y-97791335D02*
X185928000Y-97536000D01*
X185672665Y-107449786D02*
X185672665Y-97791335D01*
X186436000Y-104902000D02*
X186436000Y-98298000D01*
X186436000Y-98298000D02*
X186753501Y-97980499D01*
X186753501Y-97980499D02*
X187198000Y-97536000D01*
X179565310Y-116332000D02*
X181356000Y-116332000D01*
X175768000Y-112534690D02*
X179565310Y-116332000D01*
X175768000Y-118618000D02*
X180848000Y-118618000D01*
X172212000Y-115062000D02*
X175768000Y-118618000D01*
X179832000Y-113284000D02*
X182626000Y-116078000D01*
X177800000Y-113284000D02*
X179832000Y-113284000D01*
D15*
G36*
X207290200Y-128221590D02*
X207183459Y-129310211D01*
X206881362Y-130310803D01*
X206469888Y-131084675D01*
X206469888Y-125569987D01*
X206392189Y-125177580D01*
X206239751Y-124807738D01*
X206018380Y-124474548D01*
X205736509Y-124190702D01*
X205404873Y-123967011D01*
X205289890Y-123918676D01*
X205289890Y-114777084D01*
X205289890Y-109777084D01*
X205210287Y-109375059D01*
X205054112Y-108996151D01*
X205043717Y-108980505D01*
X205043717Y-105041730D01*
X205019943Y-104680891D01*
X204926229Y-104331624D01*
X204766179Y-104007350D01*
X204699810Y-103908023D01*
X204392101Y-103807860D01*
X204374140Y-103825821D01*
X204374140Y-103789899D01*
X204273977Y-103482190D01*
X203960743Y-103301486D01*
X203618273Y-103185363D01*
X203259730Y-103138283D01*
X202898891Y-103162057D01*
X202549624Y-103255771D01*
X202225350Y-103415821D01*
X202126023Y-103482190D01*
X202025860Y-103789899D01*
X203200000Y-104964039D01*
X204374140Y-103789899D01*
X204374140Y-103825821D01*
X203217961Y-104982000D01*
X204392101Y-106156140D01*
X204699810Y-106055977D01*
X204880514Y-105742743D01*
X204996637Y-105400273D01*
X205043717Y-105041730D01*
X205043717Y-108980505D01*
X204827315Y-108654794D01*
X204538534Y-108363990D01*
X204374140Y-108253104D01*
X204374140Y-106174101D01*
X203200000Y-104999961D01*
X203182039Y-105017922D01*
X203182039Y-104982000D01*
X202007899Y-103807860D01*
X201700190Y-103908023D01*
X201519486Y-104221257D01*
X201403363Y-104563727D01*
X201356283Y-104922270D01*
X201380057Y-105283109D01*
X201473771Y-105632376D01*
X201633821Y-105956650D01*
X201700190Y-106055977D01*
X202007899Y-106156140D01*
X203182039Y-104982000D01*
X203182039Y-105017922D01*
X202025860Y-106174101D01*
X202126023Y-106481810D01*
X202439257Y-106662514D01*
X202781727Y-106778637D01*
X203140270Y-106825717D01*
X203501109Y-106801943D01*
X203850376Y-106708229D01*
X204174650Y-106548179D01*
X204273977Y-106481810D01*
X204374140Y-106174101D01*
X204374140Y-108253104D01*
X204198769Y-108134815D01*
X203820961Y-107976000D01*
X203419501Y-107893592D01*
X203009680Y-107890730D01*
X202607108Y-107967525D01*
X202227119Y-108121050D01*
X201884187Y-108345459D01*
X201591374Y-108632203D01*
X201359833Y-108970360D01*
X201198383Y-109347050D01*
X201113175Y-109747925D01*
X201107453Y-110157716D01*
X201181435Y-110560814D01*
X201332304Y-110941865D01*
X201554313Y-111286356D01*
X201839005Y-111581163D01*
X202175538Y-111815060D01*
X202551092Y-111979135D01*
X202951362Y-112067140D01*
X203361103Y-112075723D01*
X203764708Y-112004557D01*
X204146803Y-111856352D01*
X204492835Y-111636753D01*
X204789623Y-111354126D01*
X205025863Y-111019234D01*
X205192556Y-110644835D01*
X205283354Y-110245189D01*
X205289890Y-109777084D01*
X205289890Y-114777084D01*
X205210287Y-114375059D01*
X205054112Y-113996151D01*
X204827315Y-113654794D01*
X204538534Y-113363990D01*
X204198769Y-113134815D01*
X203820961Y-112976000D01*
X203419501Y-112893592D01*
X203009680Y-112890730D01*
X202607108Y-112967525D01*
X202227119Y-113121050D01*
X201884187Y-113345459D01*
X201591374Y-113632203D01*
X201359833Y-113970360D01*
X201198383Y-114347050D01*
X201113175Y-114747925D01*
X201107453Y-115157716D01*
X201181435Y-115560814D01*
X201332304Y-115941865D01*
X201554313Y-116286356D01*
X201839005Y-116581163D01*
X202175538Y-116815060D01*
X202551092Y-116979135D01*
X202951362Y-117067140D01*
X203361103Y-117075723D01*
X203764708Y-117004557D01*
X204146803Y-116856352D01*
X204492835Y-116636753D01*
X204789623Y-116354126D01*
X205025863Y-116019234D01*
X205192556Y-115644835D01*
X205283354Y-115245189D01*
X205289890Y-114777084D01*
X205289890Y-123918676D01*
X205036104Y-123811995D01*
X204644249Y-123731558D01*
X204244233Y-123728766D01*
X203851293Y-123803723D01*
X203480396Y-123953575D01*
X203145669Y-124172614D01*
X202859862Y-124452498D01*
X202633860Y-124782564D01*
X202476274Y-125150242D01*
X202393104Y-125541525D01*
X202387518Y-125941512D01*
X202459731Y-126334966D01*
X202606990Y-126706900D01*
X202823687Y-127043148D01*
X203101568Y-127330902D01*
X203430049Y-127559202D01*
X203796617Y-127719352D01*
X204187311Y-127805252D01*
X204587249Y-127813629D01*
X204981197Y-127744165D01*
X205354150Y-127599506D01*
X205691903Y-127385162D01*
X205981590Y-127109297D01*
X206212178Y-126782418D01*
X206374883Y-126416976D01*
X206463508Y-126026892D01*
X206469888Y-125569987D01*
X206469888Y-131084675D01*
X206390670Y-131233663D01*
X206223511Y-131438619D01*
X206223511Y-130827757D01*
X206200316Y-130476751D01*
X206109090Y-130137014D01*
X205953337Y-129821602D01*
X205889162Y-129725555D01*
X205586573Y-129631388D01*
X205568612Y-129649349D01*
X205568612Y-129613427D01*
X205474445Y-129310838D01*
X205169708Y-129135115D01*
X204836544Y-129022219D01*
X204487757Y-128976489D01*
X204136751Y-128999684D01*
X203797014Y-129090910D01*
X203481602Y-129246663D01*
X203385555Y-129310838D01*
X203291388Y-129613427D01*
X204430000Y-130752039D01*
X205568612Y-129613427D01*
X205568612Y-129649349D01*
X204447961Y-130770000D01*
X205586573Y-131908612D01*
X205889162Y-131814445D01*
X206064885Y-131509708D01*
X206177781Y-131176544D01*
X206223511Y-130827757D01*
X206223511Y-131438619D01*
X205730073Y-132043634D01*
X205568612Y-132177206D01*
X205568612Y-131926573D01*
X204430000Y-130787961D01*
X204412039Y-130805922D01*
X204412039Y-130770000D01*
X203273427Y-129631388D01*
X202970838Y-129725555D01*
X202795115Y-130030292D01*
X202682219Y-130363456D01*
X202636489Y-130712243D01*
X202659684Y-131063249D01*
X202750910Y-131402986D01*
X202906663Y-131718398D01*
X202970838Y-131814445D01*
X203273427Y-131908612D01*
X204412039Y-130770000D01*
X204412039Y-130805922D01*
X203291388Y-131926573D01*
X203385555Y-132229162D01*
X203690292Y-132404885D01*
X204023456Y-132517781D01*
X204372243Y-132563511D01*
X204723249Y-132540316D01*
X205062986Y-132449090D01*
X205378398Y-132293337D01*
X205474445Y-132229162D01*
X205568612Y-131926573D01*
X205568612Y-132177206D01*
X204924727Y-132709875D01*
X204005324Y-133206993D01*
X203006866Y-133516069D01*
X201920981Y-133630200D01*
X201469888Y-133630200D01*
X201469888Y-125569987D01*
X201392189Y-125177580D01*
X201239751Y-124807738D01*
X201018380Y-124474548D01*
X200736509Y-124190702D01*
X200404873Y-123967011D01*
X200036104Y-123811995D01*
X199644249Y-123731558D01*
X199244233Y-123728766D01*
X198851293Y-123803723D01*
X198480396Y-123953575D01*
X198145669Y-124172614D01*
X197859862Y-124452498D01*
X197633860Y-124782564D01*
X197476274Y-125150242D01*
X197393104Y-125541525D01*
X197387518Y-125941512D01*
X197459731Y-126334966D01*
X197606990Y-126706900D01*
X197823687Y-127043148D01*
X198101568Y-127330902D01*
X198430049Y-127559202D01*
X198796617Y-127719352D01*
X199187311Y-127805252D01*
X199587249Y-127813629D01*
X199981197Y-127744165D01*
X200354150Y-127599506D01*
X200691903Y-127385162D01*
X200981590Y-127109297D01*
X201212178Y-126782418D01*
X201374883Y-126416976D01*
X201463508Y-126026892D01*
X201469888Y-125569987D01*
X201469888Y-133630200D01*
X201223511Y-133630200D01*
X201223511Y-130827757D01*
X201200316Y-130476751D01*
X201109090Y-130137014D01*
X200953337Y-129821602D01*
X200889162Y-129725555D01*
X200586573Y-129631388D01*
X200568612Y-129649349D01*
X200568612Y-129613427D01*
X200474445Y-129310838D01*
X200169708Y-129135115D01*
X199836544Y-129022219D01*
X199487757Y-128976489D01*
X199136751Y-128999684D01*
X198797014Y-129090910D01*
X198481602Y-129246663D01*
X198385555Y-129310838D01*
X198291388Y-129613427D01*
X199430000Y-130752039D01*
X200568612Y-129613427D01*
X200568612Y-129649349D01*
X199447961Y-130770000D01*
X200586573Y-131908612D01*
X200889162Y-131814445D01*
X201064885Y-131509708D01*
X201177781Y-131176544D01*
X201223511Y-130827757D01*
X201223511Y-133630200D01*
X200568612Y-133630200D01*
X200568612Y-131926573D01*
X199430000Y-130787961D01*
X199412039Y-130805922D01*
X199412039Y-130770000D01*
X198273427Y-129631388D01*
X197970838Y-129725555D01*
X197795115Y-130030292D01*
X197682219Y-130363456D01*
X197636489Y-130712243D01*
X197659684Y-131063249D01*
X197750910Y-131402986D01*
X197906663Y-131718398D01*
X197970838Y-131814445D01*
X198273427Y-131908612D01*
X199412039Y-130770000D01*
X199412039Y-130805922D01*
X198291388Y-131926573D01*
X198385555Y-132229162D01*
X198690292Y-132404885D01*
X199023456Y-132517781D01*
X199372243Y-132563511D01*
X199723249Y-132540316D01*
X200062986Y-132449090D01*
X200378398Y-132293337D01*
X200474445Y-132229162D01*
X200568612Y-131926573D01*
X200568612Y-133630200D01*
X194023888Y-133630200D01*
X194023888Y-125569987D01*
X193946189Y-125177580D01*
X193793751Y-124807738D01*
X193572380Y-124474548D01*
X193290509Y-124190702D01*
X192958873Y-123967011D01*
X192590104Y-123811995D01*
X192198249Y-123731558D01*
X191798233Y-123728766D01*
X191405293Y-123803723D01*
X191034396Y-123953575D01*
X190699669Y-124172614D01*
X190413862Y-124452498D01*
X190187860Y-124782564D01*
X190030274Y-125150242D01*
X189947104Y-125541525D01*
X189941518Y-125941512D01*
X190013731Y-126334966D01*
X190160990Y-126706900D01*
X190377687Y-127043148D01*
X190655568Y-127330902D01*
X190984049Y-127559202D01*
X191350617Y-127719352D01*
X191741311Y-127805252D01*
X192141249Y-127813629D01*
X192535197Y-127744165D01*
X192908150Y-127599506D01*
X193245903Y-127385162D01*
X193535590Y-127109297D01*
X193766178Y-126782418D01*
X193928883Y-126416976D01*
X194017508Y-126026892D01*
X194023888Y-125569987D01*
X194023888Y-133630200D01*
X193777511Y-133630200D01*
X193777511Y-130827757D01*
X193754316Y-130476751D01*
X193663090Y-130137014D01*
X193507337Y-129821602D01*
X193443162Y-129725555D01*
X193140573Y-129631388D01*
X193122612Y-129649349D01*
X193122612Y-129613427D01*
X193028445Y-129310838D01*
X192723708Y-129135115D01*
X192390544Y-129022219D01*
X192041757Y-128976489D01*
X191690751Y-128999684D01*
X191351014Y-129090910D01*
X191035602Y-129246663D01*
X190939555Y-129310838D01*
X190845388Y-129613427D01*
X191984000Y-130752039D01*
X193122612Y-129613427D01*
X193122612Y-129649349D01*
X192001961Y-130770000D01*
X193140573Y-131908612D01*
X193443162Y-131814445D01*
X193618885Y-131509708D01*
X193731781Y-131176544D01*
X193777511Y-130827757D01*
X193777511Y-133630200D01*
X193122612Y-133630200D01*
X193122612Y-131926573D01*
X191984000Y-130787961D01*
X191966039Y-130805922D01*
X191966039Y-130770000D01*
X190827427Y-129631388D01*
X190524838Y-129725555D01*
X190349115Y-130030292D01*
X190236219Y-130363456D01*
X190190489Y-130712243D01*
X190213684Y-131063249D01*
X190304910Y-131402986D01*
X190460663Y-131718398D01*
X190524838Y-131814445D01*
X190827427Y-131908612D01*
X191966039Y-130770000D01*
X191966039Y-130805922D01*
X190845388Y-131926573D01*
X190939555Y-132229162D01*
X191244292Y-132404885D01*
X191577456Y-132517781D01*
X191926243Y-132563511D01*
X192277249Y-132540316D01*
X192616986Y-132449090D01*
X192932398Y-132293337D01*
X193028445Y-132229162D01*
X193122612Y-131926573D01*
X193122612Y-133630200D01*
X189023888Y-133630200D01*
X189023888Y-125569987D01*
X188946189Y-125177580D01*
X188793751Y-124807738D01*
X188572380Y-124474548D01*
X188290509Y-124190702D01*
X187958873Y-123967011D01*
X187590104Y-123811995D01*
X187198249Y-123731558D01*
X186798233Y-123728766D01*
X186405293Y-123803723D01*
X186034396Y-123953575D01*
X185699669Y-124172614D01*
X185413862Y-124452498D01*
X185187860Y-124782564D01*
X185030274Y-125150242D01*
X184947104Y-125541525D01*
X184941518Y-125941512D01*
X185013731Y-126334966D01*
X185160990Y-126706900D01*
X185377687Y-127043148D01*
X185655568Y-127330902D01*
X185984049Y-127559202D01*
X186350617Y-127719352D01*
X186741311Y-127805252D01*
X187141249Y-127813629D01*
X187535197Y-127744165D01*
X187908150Y-127599506D01*
X188245903Y-127385162D01*
X188535590Y-127109297D01*
X188766178Y-126782418D01*
X188928883Y-126416976D01*
X189017508Y-126026892D01*
X189023888Y-125569987D01*
X189023888Y-133630200D01*
X188777511Y-133630200D01*
X188777511Y-130827757D01*
X188754316Y-130476751D01*
X188663090Y-130137014D01*
X188507337Y-129821602D01*
X188443162Y-129725555D01*
X188140573Y-129631388D01*
X188122612Y-129649349D01*
X188122612Y-129613427D01*
X188028445Y-129310838D01*
X187723708Y-129135115D01*
X187390544Y-129022219D01*
X187041757Y-128976489D01*
X186690751Y-128999684D01*
X186351014Y-129090910D01*
X186035602Y-129246663D01*
X185939555Y-129310838D01*
X185845388Y-129613427D01*
X186984000Y-130752039D01*
X188122612Y-129613427D01*
X188122612Y-129649349D01*
X187001961Y-130770000D01*
X188140573Y-131908612D01*
X188443162Y-131814445D01*
X188618885Y-131509708D01*
X188731781Y-131176544D01*
X188777511Y-130827757D01*
X188777511Y-133630200D01*
X188122612Y-133630200D01*
X188122612Y-131926573D01*
X186984000Y-130787961D01*
X186966039Y-130805922D01*
X186966039Y-130770000D01*
X185827427Y-129631388D01*
X185524838Y-129725555D01*
X185349115Y-130030292D01*
X185236219Y-130363456D01*
X185190489Y-130712243D01*
X185213684Y-131063249D01*
X185304910Y-131402986D01*
X185460663Y-131718398D01*
X185524838Y-131814445D01*
X185827427Y-131908612D01*
X186966039Y-130770000D01*
X186966039Y-130805922D01*
X185845388Y-131926573D01*
X185939555Y-132229162D01*
X186244292Y-132404885D01*
X186577456Y-132517781D01*
X186926243Y-132563511D01*
X187277249Y-132540316D01*
X187616986Y-132449090D01*
X187932398Y-132293337D01*
X188028445Y-132229162D01*
X188122612Y-131926573D01*
X188122612Y-133630200D01*
X184010359Y-133630200D01*
X184010359Y-115942262D01*
X183957630Y-115675957D01*
X183854178Y-115424966D01*
X183703946Y-115198849D01*
X183512655Y-115006218D01*
X183287592Y-114854411D01*
X183037329Y-114749210D01*
X182771399Y-114694622D01*
X182714990Y-114694228D01*
X180568381Y-112547619D01*
X180494027Y-112486544D01*
X180420357Y-112424727D01*
X180415559Y-112422089D01*
X180411326Y-112418612D01*
X180326546Y-112373153D01*
X180242251Y-112326812D01*
X180237028Y-112325155D01*
X180232205Y-112322569D01*
X180140259Y-112294458D01*
X180048519Y-112265357D01*
X180043074Y-112264746D01*
X180037840Y-112263146D01*
X179942121Y-112253422D01*
X179846540Y-112242702D01*
X179835841Y-112242626D01*
X179835635Y-112242606D01*
X179835442Y-112242624D01*
X179832000Y-112242600D01*
X178716825Y-112242600D01*
X178686655Y-112212218D01*
X178461592Y-112060411D01*
X178211329Y-111955210D01*
X177945399Y-111900622D01*
X177673930Y-111898727D01*
X177407264Y-111949596D01*
X177155556Y-112051293D01*
X177085100Y-112097397D01*
X176996178Y-111881656D01*
X176845946Y-111655539D01*
X176654655Y-111462908D01*
X176429592Y-111311101D01*
X176179329Y-111205900D01*
X175913399Y-111151312D01*
X175641930Y-111149417D01*
X175375264Y-111200286D01*
X175123556Y-111301983D01*
X174896395Y-111450632D01*
X174702434Y-111640574D01*
X174549059Y-111864572D01*
X174442114Y-112114094D01*
X174385671Y-112379637D01*
X174381880Y-112651086D01*
X174430887Y-112918101D01*
X174530824Y-113170512D01*
X174677884Y-113398705D01*
X174866467Y-113593988D01*
X175089388Y-113748923D01*
X175338158Y-113857608D01*
X175603300Y-113915903D01*
X175678015Y-113917467D01*
X178828929Y-117068381D01*
X178903255Y-117129433D01*
X178976953Y-117191273D01*
X178981753Y-117193912D01*
X178985984Y-117197387D01*
X179070724Y-117242824D01*
X179155059Y-117289188D01*
X179160281Y-117290844D01*
X179165105Y-117293431D01*
X179257050Y-117321541D01*
X179348791Y-117350643D01*
X179354235Y-117351253D01*
X179359470Y-117352854D01*
X179455144Y-117362572D01*
X179550770Y-117373298D01*
X179561479Y-117373373D01*
X179561675Y-117373393D01*
X179561857Y-117373375D01*
X179565310Y-117373400D01*
X180232992Y-117373400D01*
X180203556Y-117385293D01*
X179976395Y-117533942D01*
X179932834Y-117576600D01*
X176199362Y-117576600D01*
X173595707Y-114972945D01*
X173596359Y-114926262D01*
X173543630Y-114659957D01*
X173440178Y-114408966D01*
X173289946Y-114182849D01*
X173098655Y-113990218D01*
X172873592Y-113838411D01*
X172623329Y-113733210D01*
X172357399Y-113678622D01*
X172085930Y-113676727D01*
X171819264Y-113727596D01*
X171567556Y-113829293D01*
X171340395Y-113977942D01*
X171146434Y-114167884D01*
X170993059Y-114391882D01*
X170886114Y-114641404D01*
X170829671Y-114906947D01*
X170825880Y-115178396D01*
X170874887Y-115445411D01*
X170974824Y-115697822D01*
X171121884Y-115926015D01*
X171310467Y-116121298D01*
X171533388Y-116276233D01*
X171782158Y-116384918D01*
X172047300Y-116443213D01*
X172122015Y-116444777D01*
X175031619Y-119354381D01*
X175105967Y-119415451D01*
X175179643Y-119477273D01*
X175184440Y-119479910D01*
X175188673Y-119483387D01*
X175273435Y-119528836D01*
X175357749Y-119575188D01*
X175362971Y-119576844D01*
X175367795Y-119579431D01*
X175459753Y-119607545D01*
X175551481Y-119636643D01*
X175556924Y-119637253D01*
X175562159Y-119638854D01*
X175657843Y-119648573D01*
X175753460Y-119659298D01*
X175764168Y-119659373D01*
X175764364Y-119659393D01*
X175764546Y-119659375D01*
X175768000Y-119659400D01*
X179929183Y-119659400D01*
X179946467Y-119677298D01*
X180169388Y-119832233D01*
X180418158Y-119940918D01*
X180683300Y-119999213D01*
X180954716Y-120004898D01*
X181222067Y-119957757D01*
X181475170Y-119859585D01*
X181704384Y-119714121D01*
X181900979Y-119526907D01*
X182057466Y-119305072D01*
X182167885Y-119057067D01*
X182228030Y-118792338D01*
X182232359Y-118482262D01*
X182179630Y-118215957D01*
X182076178Y-117964966D01*
X181925946Y-117738849D01*
X181823379Y-117635563D01*
X181983170Y-117573585D01*
X182212384Y-117428121D01*
X182232548Y-117408918D01*
X182461300Y-117459213D01*
X182732716Y-117464898D01*
X183000067Y-117417757D01*
X183253170Y-117319585D01*
X183482384Y-117174121D01*
X183678979Y-116986907D01*
X183835466Y-116765072D01*
X183945885Y-116517067D01*
X184006030Y-116252338D01*
X184010359Y-115942262D01*
X184010359Y-133630200D01*
X181577888Y-133630200D01*
X181577888Y-125569987D01*
X181500189Y-125177580D01*
X181347751Y-124807738D01*
X181126380Y-124474548D01*
X180844509Y-124190702D01*
X180512873Y-123967011D01*
X180144104Y-123811995D01*
X179752249Y-123731558D01*
X179352233Y-123728766D01*
X178959293Y-123803723D01*
X178588396Y-123953575D01*
X178253669Y-124172614D01*
X177967862Y-124452498D01*
X177741860Y-124782564D01*
X177584274Y-125150242D01*
X177501104Y-125541525D01*
X177495518Y-125941512D01*
X177567731Y-126334966D01*
X177714990Y-126706900D01*
X177931687Y-127043148D01*
X178209568Y-127330902D01*
X178538049Y-127559202D01*
X178904617Y-127719352D01*
X179295311Y-127805252D01*
X179695249Y-127813629D01*
X180089197Y-127744165D01*
X180462150Y-127599506D01*
X180799903Y-127385162D01*
X181089590Y-127109297D01*
X181320178Y-126782418D01*
X181482883Y-126416976D01*
X181571508Y-126026892D01*
X181577888Y-125569987D01*
X181577888Y-133630200D01*
X181331511Y-133630200D01*
X181331511Y-130827757D01*
X181308316Y-130476751D01*
X181217090Y-130137014D01*
X181061337Y-129821602D01*
X180997162Y-129725555D01*
X180694573Y-129631388D01*
X180676612Y-129649349D01*
X180676612Y-129613427D01*
X180582445Y-129310838D01*
X180277708Y-129135115D01*
X179944544Y-129022219D01*
X179595757Y-128976489D01*
X179244751Y-128999684D01*
X178905014Y-129090910D01*
X178589602Y-129246663D01*
X178493555Y-129310838D01*
X178399388Y-129613427D01*
X179538000Y-130752039D01*
X180676612Y-129613427D01*
X180676612Y-129649349D01*
X179555961Y-130770000D01*
X180694573Y-131908612D01*
X180997162Y-131814445D01*
X181172885Y-131509708D01*
X181285781Y-131176544D01*
X181331511Y-130827757D01*
X181331511Y-133630200D01*
X180676612Y-133630200D01*
X180676612Y-131926573D01*
X179538000Y-130787961D01*
X179520039Y-130805922D01*
X179520039Y-130770000D01*
X178381427Y-129631388D01*
X178078838Y-129725555D01*
X177903115Y-130030292D01*
X177790219Y-130363456D01*
X177744489Y-130712243D01*
X177767684Y-131063249D01*
X177858910Y-131402986D01*
X178014663Y-131718398D01*
X178078838Y-131814445D01*
X178381427Y-131908612D01*
X179520039Y-130770000D01*
X179520039Y-130805922D01*
X178399388Y-131926573D01*
X178493555Y-132229162D01*
X178798292Y-132404885D01*
X179131456Y-132517781D01*
X179480243Y-132563511D01*
X179831249Y-132540316D01*
X180170986Y-132449090D01*
X180486398Y-132293337D01*
X180582445Y-132229162D01*
X180676612Y-131926573D01*
X180676612Y-133630200D01*
X176577888Y-133630200D01*
X176577888Y-125569987D01*
X176500189Y-125177580D01*
X176347751Y-124807738D01*
X176126380Y-124474548D01*
X175844509Y-124190702D01*
X175512873Y-123967011D01*
X175144104Y-123811995D01*
X174752249Y-123731558D01*
X174352233Y-123728766D01*
X173959293Y-123803723D01*
X173588396Y-123953575D01*
X173253669Y-124172614D01*
X172967862Y-124452498D01*
X172741860Y-124782564D01*
X172584274Y-125150242D01*
X172501104Y-125541525D01*
X172495518Y-125941512D01*
X172567731Y-126334966D01*
X172714990Y-126706900D01*
X172931687Y-127043148D01*
X173209568Y-127330902D01*
X173538049Y-127559202D01*
X173904617Y-127719352D01*
X174295311Y-127805252D01*
X174695249Y-127813629D01*
X175089197Y-127744165D01*
X175462150Y-127599506D01*
X175799903Y-127385162D01*
X176089590Y-127109297D01*
X176320178Y-126782418D01*
X176482883Y-126416976D01*
X176571508Y-126026892D01*
X176577888Y-125569987D01*
X176577888Y-133630200D01*
X176331511Y-133630200D01*
X176331511Y-130827757D01*
X176308316Y-130476751D01*
X176217090Y-130137014D01*
X176061337Y-129821602D01*
X175997162Y-129725555D01*
X175694573Y-129631388D01*
X175676612Y-129649349D01*
X175676612Y-129613427D01*
X175582445Y-129310838D01*
X175277708Y-129135115D01*
X174944544Y-129022219D01*
X174595757Y-128976489D01*
X174244751Y-128999684D01*
X173905014Y-129090910D01*
X173589602Y-129246663D01*
X173493555Y-129310838D01*
X173399388Y-129613427D01*
X174538000Y-130752039D01*
X175676612Y-129613427D01*
X175676612Y-129649349D01*
X174555961Y-130770000D01*
X175694573Y-131908612D01*
X175997162Y-131814445D01*
X176172885Y-131509708D01*
X176285781Y-131176544D01*
X176331511Y-130827757D01*
X176331511Y-133630200D01*
X175676612Y-133630200D01*
X175676612Y-131926573D01*
X174538000Y-130787961D01*
X174520039Y-130805922D01*
X174520039Y-130770000D01*
X173381427Y-129631388D01*
X173078838Y-129725555D01*
X172903115Y-130030292D01*
X172790219Y-130363456D01*
X172744489Y-130712243D01*
X172767684Y-131063249D01*
X172858910Y-131402986D01*
X173014663Y-131718398D01*
X173078838Y-131814445D01*
X173381427Y-131908612D01*
X174520039Y-130770000D01*
X174520039Y-130805922D01*
X173399388Y-131926573D01*
X173493555Y-132229162D01*
X173798292Y-132404885D01*
X174131456Y-132517781D01*
X174480243Y-132563511D01*
X174831249Y-132540316D01*
X175170986Y-132449090D01*
X175486398Y-132293337D01*
X175582445Y-132229162D01*
X175676612Y-131926573D01*
X175676612Y-133630200D01*
X169131888Y-133630200D01*
X169131888Y-125569987D01*
X169054189Y-125177580D01*
X168901751Y-124807738D01*
X168680380Y-124474548D01*
X168398509Y-124190702D01*
X168066873Y-123967011D01*
X167698104Y-123811995D01*
X167306249Y-123731558D01*
X166906233Y-123728766D01*
X166513293Y-123803723D01*
X166142396Y-123953575D01*
X165807669Y-124172614D01*
X165521862Y-124452498D01*
X165295860Y-124782564D01*
X165138274Y-125150242D01*
X165055104Y-125541525D01*
X165049518Y-125941512D01*
X165121731Y-126334966D01*
X165268990Y-126706900D01*
X165485687Y-127043148D01*
X165763568Y-127330902D01*
X166092049Y-127559202D01*
X166458617Y-127719352D01*
X166849311Y-127805252D01*
X167249249Y-127813629D01*
X167643197Y-127744165D01*
X168016150Y-127599506D01*
X168353903Y-127385162D01*
X168643590Y-127109297D01*
X168874178Y-126782418D01*
X169036883Y-126416976D01*
X169125508Y-126026892D01*
X169131888Y-125569987D01*
X169131888Y-133630200D01*
X168885511Y-133630200D01*
X168885511Y-130827757D01*
X168862316Y-130476751D01*
X168771090Y-130137014D01*
X168615337Y-129821602D01*
X168551162Y-129725555D01*
X168248573Y-129631388D01*
X168230612Y-129649349D01*
X168230612Y-129613427D01*
X168136445Y-129310838D01*
X167831708Y-129135115D01*
X167498544Y-129022219D01*
X167149757Y-128976489D01*
X166798751Y-128999684D01*
X166459014Y-129090910D01*
X166143602Y-129246663D01*
X166047555Y-129310838D01*
X165953388Y-129613427D01*
X167092000Y-130752039D01*
X168230612Y-129613427D01*
X168230612Y-129649349D01*
X167109961Y-130770000D01*
X168248573Y-131908612D01*
X168551162Y-131814445D01*
X168726885Y-131509708D01*
X168839781Y-131176544D01*
X168885511Y-130827757D01*
X168885511Y-133630200D01*
X168230612Y-133630200D01*
X168230612Y-131926573D01*
X167092000Y-130787961D01*
X167074039Y-130805922D01*
X167074039Y-130770000D01*
X165935427Y-129631388D01*
X165632838Y-129725555D01*
X165457115Y-130030292D01*
X165344219Y-130363456D01*
X165298489Y-130712243D01*
X165321684Y-131063249D01*
X165412910Y-131402986D01*
X165568663Y-131718398D01*
X165632838Y-131814445D01*
X165935427Y-131908612D01*
X167074039Y-130770000D01*
X167074039Y-130805922D01*
X165953388Y-131926573D01*
X166047555Y-132229162D01*
X166352292Y-132404885D01*
X166685456Y-132517781D01*
X167034243Y-132563511D01*
X167385249Y-132540316D01*
X167724986Y-132449090D01*
X168040398Y-132293337D01*
X168136445Y-132229162D01*
X168230612Y-131926573D01*
X168230612Y-133630200D01*
X164131888Y-133630200D01*
X164131888Y-125569987D01*
X164054189Y-125177580D01*
X163901751Y-124807738D01*
X163680380Y-124474548D01*
X163398509Y-124190702D01*
X163066873Y-123967011D01*
X162698104Y-123811995D01*
X162306249Y-123731558D01*
X161906233Y-123728766D01*
X161513293Y-123803723D01*
X161142396Y-123953575D01*
X160807669Y-124172614D01*
X160521862Y-124452498D01*
X160295860Y-124782564D01*
X160138274Y-125150242D01*
X160055104Y-125541525D01*
X160049518Y-125941512D01*
X160121731Y-126334966D01*
X160268990Y-126706900D01*
X160485687Y-127043148D01*
X160763568Y-127330902D01*
X161092049Y-127559202D01*
X161458617Y-127719352D01*
X161849311Y-127805252D01*
X162249249Y-127813629D01*
X162643197Y-127744165D01*
X163016150Y-127599506D01*
X163353903Y-127385162D01*
X163643590Y-127109297D01*
X163874178Y-126782418D01*
X164036883Y-126416976D01*
X164125508Y-126026892D01*
X164131888Y-125569987D01*
X164131888Y-133630200D01*
X163885511Y-133630200D01*
X163885511Y-130827757D01*
X163862316Y-130476751D01*
X163771090Y-130137014D01*
X163615337Y-129821602D01*
X163551162Y-129725555D01*
X163248573Y-129631388D01*
X163230612Y-129649349D01*
X163230612Y-129613427D01*
X163136445Y-129310838D01*
X162831708Y-129135115D01*
X162498544Y-129022219D01*
X162149757Y-128976489D01*
X161798751Y-128999684D01*
X161459014Y-129090910D01*
X161143602Y-129246663D01*
X161047555Y-129310838D01*
X160953388Y-129613427D01*
X162092000Y-130752039D01*
X163230612Y-129613427D01*
X163230612Y-129649349D01*
X162109961Y-130770000D01*
X163248573Y-131908612D01*
X163551162Y-131814445D01*
X163726885Y-131509708D01*
X163839781Y-131176544D01*
X163885511Y-130827757D01*
X163885511Y-133630200D01*
X163878409Y-133630200D01*
X163230612Y-133566682D01*
X163230612Y-131926573D01*
X162092000Y-130787961D01*
X162074039Y-130805922D01*
X162074039Y-130770000D01*
X160935427Y-129631388D01*
X160632838Y-129725555D01*
X160457115Y-130030292D01*
X160344219Y-130363456D01*
X160298489Y-130712243D01*
X160321684Y-131063249D01*
X160412910Y-131402986D01*
X160568663Y-131718398D01*
X160632838Y-131814445D01*
X160935427Y-131908612D01*
X162074039Y-130770000D01*
X162074039Y-130805922D01*
X160953388Y-131926573D01*
X161047555Y-132229162D01*
X161352292Y-132404885D01*
X161685456Y-132517781D01*
X162034243Y-132563511D01*
X162385249Y-132540316D01*
X162724986Y-132449090D01*
X163040398Y-132293337D01*
X163136445Y-132229162D01*
X163230612Y-131926573D01*
X163230612Y-133566682D01*
X162789788Y-133523459D01*
X161789196Y-133221362D01*
X160866336Y-132730670D01*
X160056365Y-132070073D01*
X159390124Y-131264727D01*
X158893006Y-130345324D01*
X158583930Y-129346866D01*
X158469800Y-128260981D01*
X158469800Y-102918408D01*
X158576540Y-101829789D01*
X158878637Y-100829195D01*
X159369327Y-99906340D01*
X160029926Y-99096365D01*
X160835270Y-98430126D01*
X161754679Y-97933003D01*
X162753133Y-97623930D01*
X163839018Y-97509800D01*
X183273871Y-97509800D01*
X183271880Y-97652396D01*
X183320887Y-97919411D01*
X183420824Y-98171822D01*
X183567884Y-98400015D01*
X183681194Y-98517351D01*
X183691075Y-98551360D01*
X183693595Y-98556222D01*
X183695178Y-98561464D01*
X183740344Y-98646409D01*
X183762461Y-98689076D01*
X183538601Y-98643125D01*
X183257419Y-98641162D01*
X182981211Y-98693851D01*
X182720498Y-98799186D01*
X182485209Y-98953155D01*
X182284308Y-99149892D01*
X182125445Y-99381905D01*
X182014673Y-99640355D01*
X181956211Y-99915399D01*
X181952285Y-100196560D01*
X182003045Y-100473129D01*
X182106557Y-100734572D01*
X182258880Y-100970930D01*
X182454210Y-101173200D01*
X182685107Y-101333678D01*
X182942778Y-101446252D01*
X183217407Y-101506633D01*
X183498534Y-101512522D01*
X183775451Y-101463694D01*
X183857920Y-101431706D01*
X183857920Y-101516394D01*
X183757264Y-101535596D01*
X183505556Y-101637293D01*
X183278395Y-101785942D01*
X183084434Y-101975884D01*
X182931059Y-102199882D01*
X182824114Y-102449404D01*
X182767671Y-102714947D01*
X182763880Y-102986396D01*
X182812887Y-103253411D01*
X182912824Y-103505822D01*
X183059884Y-103734015D01*
X183108600Y-103784461D01*
X183108600Y-105486638D01*
X182030243Y-106564994D01*
X181991930Y-106564727D01*
X181725264Y-106615596D01*
X181473556Y-106717293D01*
X181246395Y-106865942D01*
X181052434Y-107055884D01*
X180899059Y-107279882D01*
X180792114Y-107529404D01*
X180735671Y-107794947D01*
X180731880Y-108066396D01*
X180780887Y-108333411D01*
X180880824Y-108585822D01*
X181027884Y-108814015D01*
X181216467Y-109009298D01*
X181439388Y-109164233D01*
X181688158Y-109272918D01*
X181953300Y-109331213D01*
X182224716Y-109336898D01*
X182492067Y-109289757D01*
X182745170Y-109191585D01*
X182974384Y-109046121D01*
X183170979Y-108858907D01*
X183327466Y-108637072D01*
X183437885Y-108389067D01*
X183498030Y-108124338D01*
X183499185Y-108041576D01*
X184302295Y-107238466D01*
X184290336Y-107294733D01*
X184286545Y-107566182D01*
X184335552Y-107833197D01*
X184435489Y-108085608D01*
X184582549Y-108313801D01*
X184771132Y-108509084D01*
X184994053Y-108664019D01*
X185242823Y-108772704D01*
X185507965Y-108830999D01*
X185779381Y-108836684D01*
X186046732Y-108789543D01*
X186299835Y-108691371D01*
X186529049Y-108545907D01*
X186725644Y-108358693D01*
X186882131Y-108136858D01*
X186992550Y-107888853D01*
X187052695Y-107624124D01*
X187057024Y-107314048D01*
X187004295Y-107047743D01*
X186900843Y-106796752D01*
X186750611Y-106570635D01*
X186714065Y-106533832D01*
X186714065Y-106258684D01*
X186810067Y-106241757D01*
X187063170Y-106143585D01*
X187292384Y-105998121D01*
X187488979Y-105810907D01*
X187645466Y-105589072D01*
X187755885Y-105341067D01*
X187816030Y-105076338D01*
X187820359Y-104766262D01*
X187767630Y-104499957D01*
X187664178Y-104248966D01*
X187513946Y-104022849D01*
X187477400Y-103986046D01*
X187477400Y-102128543D01*
X187535037Y-102188228D01*
X187765730Y-102348564D01*
X188023173Y-102461038D01*
X188297558Y-102521366D01*
X188578436Y-102527249D01*
X188855108Y-102478465D01*
X189117035Y-102376870D01*
X189354240Y-102226335D01*
X189557688Y-102032594D01*
X189719631Y-101803025D01*
X189833899Y-101546374D01*
X189896141Y-101272416D01*
X189900622Y-100951530D01*
X189846054Y-100675941D01*
X189738996Y-100416199D01*
X189583526Y-100182199D01*
X189478279Y-100076214D01*
X189557688Y-100000594D01*
X189719631Y-99771025D01*
X189833899Y-99514374D01*
X189896141Y-99240416D01*
X189900622Y-98919530D01*
X189846054Y-98643941D01*
X189738996Y-98384199D01*
X189583526Y-98150199D01*
X189385567Y-97950852D01*
X189152657Y-97793753D01*
X188893669Y-97684884D01*
X188618468Y-97628394D01*
X188579177Y-97628119D01*
X188580829Y-97509800D01*
X201881591Y-97509800D01*
X202970210Y-97616540D01*
X203970804Y-97918637D01*
X204893659Y-98409327D01*
X205703634Y-99069926D01*
X206369873Y-99875270D01*
X206866996Y-100794679D01*
X207176069Y-101793133D01*
X207290200Y-102879018D01*
X207290200Y-128221590D01*
X207290200Y-128221590D01*
G37*
X207290200Y-128221590D02*
X207183459Y-129310211D01*
X206881362Y-130310803D01*
X206469888Y-131084675D01*
X206469888Y-125569987D01*
X206392189Y-125177580D01*
X206239751Y-124807738D01*
X206018380Y-124474548D01*
X205736509Y-124190702D01*
X205404873Y-123967011D01*
X205289890Y-123918676D01*
X205289890Y-114777084D01*
X205289890Y-109777084D01*
X205210287Y-109375059D01*
X205054112Y-108996151D01*
X205043717Y-108980505D01*
X205043717Y-105041730D01*
X205019943Y-104680891D01*
X204926229Y-104331624D01*
X204766179Y-104007350D01*
X204699810Y-103908023D01*
X204392101Y-103807860D01*
X204374140Y-103825821D01*
X204374140Y-103789899D01*
X204273977Y-103482190D01*
X203960743Y-103301486D01*
X203618273Y-103185363D01*
X203259730Y-103138283D01*
X202898891Y-103162057D01*
X202549624Y-103255771D01*
X202225350Y-103415821D01*
X202126023Y-103482190D01*
X202025860Y-103789899D01*
X203200000Y-104964039D01*
X204374140Y-103789899D01*
X204374140Y-103825821D01*
X203217961Y-104982000D01*
X204392101Y-106156140D01*
X204699810Y-106055977D01*
X204880514Y-105742743D01*
X204996637Y-105400273D01*
X205043717Y-105041730D01*
X205043717Y-108980505D01*
X204827315Y-108654794D01*
X204538534Y-108363990D01*
X204374140Y-108253104D01*
X204374140Y-106174101D01*
X203200000Y-104999961D01*
X203182039Y-105017922D01*
X203182039Y-104982000D01*
X202007899Y-103807860D01*
X201700190Y-103908023D01*
X201519486Y-104221257D01*
X201403363Y-104563727D01*
X201356283Y-104922270D01*
X201380057Y-105283109D01*
X201473771Y-105632376D01*
X201633821Y-105956650D01*
X201700190Y-106055977D01*
X202007899Y-106156140D01*
X203182039Y-104982000D01*
X203182039Y-105017922D01*
X202025860Y-106174101D01*
X202126023Y-106481810D01*
X202439257Y-106662514D01*
X202781727Y-106778637D01*
X203140270Y-106825717D01*
X203501109Y-106801943D01*
X203850376Y-106708229D01*
X204174650Y-106548179D01*
X204273977Y-106481810D01*
X204374140Y-106174101D01*
X204374140Y-108253104D01*
X204198769Y-108134815D01*
X203820961Y-107976000D01*
X203419501Y-107893592D01*
X203009680Y-107890730D01*
X202607108Y-107967525D01*
X202227119Y-108121050D01*
X201884187Y-108345459D01*
X201591374Y-108632203D01*
X201359833Y-108970360D01*
X201198383Y-109347050D01*
X201113175Y-109747925D01*
X201107453Y-110157716D01*
X201181435Y-110560814D01*
X201332304Y-110941865D01*
X201554313Y-111286356D01*
X201839005Y-111581163D01*
X202175538Y-111815060D01*
X202551092Y-111979135D01*
X202951362Y-112067140D01*
X203361103Y-112075723D01*
X203764708Y-112004557D01*
X204146803Y-111856352D01*
X204492835Y-111636753D01*
X204789623Y-111354126D01*
X205025863Y-111019234D01*
X205192556Y-110644835D01*
X205283354Y-110245189D01*
X205289890Y-109777084D01*
X205289890Y-114777084D01*
X205210287Y-114375059D01*
X205054112Y-113996151D01*
X204827315Y-113654794D01*
X204538534Y-113363990D01*
X204198769Y-113134815D01*
X203820961Y-112976000D01*
X203419501Y-112893592D01*
X203009680Y-112890730D01*
X202607108Y-112967525D01*
X202227119Y-113121050D01*
X201884187Y-113345459D01*
X201591374Y-113632203D01*
X201359833Y-113970360D01*
X201198383Y-114347050D01*
X201113175Y-114747925D01*
X201107453Y-115157716D01*
X201181435Y-115560814D01*
X201332304Y-115941865D01*
X201554313Y-116286356D01*
X201839005Y-116581163D01*
X202175538Y-116815060D01*
X202551092Y-116979135D01*
X202951362Y-117067140D01*
X203361103Y-117075723D01*
X203764708Y-117004557D01*
X204146803Y-116856352D01*
X204492835Y-116636753D01*
X204789623Y-116354126D01*
X205025863Y-116019234D01*
X205192556Y-115644835D01*
X205283354Y-115245189D01*
X205289890Y-114777084D01*
X205289890Y-123918676D01*
X205036104Y-123811995D01*
X204644249Y-123731558D01*
X204244233Y-123728766D01*
X203851293Y-123803723D01*
X203480396Y-123953575D01*
X203145669Y-124172614D01*
X202859862Y-124452498D01*
X202633860Y-124782564D01*
X202476274Y-125150242D01*
X202393104Y-125541525D01*
X202387518Y-125941512D01*
X202459731Y-126334966D01*
X202606990Y-126706900D01*
X202823687Y-127043148D01*
X203101568Y-127330902D01*
X203430049Y-127559202D01*
X203796617Y-127719352D01*
X204187311Y-127805252D01*
X204587249Y-127813629D01*
X204981197Y-127744165D01*
X205354150Y-127599506D01*
X205691903Y-127385162D01*
X205981590Y-127109297D01*
X206212178Y-126782418D01*
X206374883Y-126416976D01*
X206463508Y-126026892D01*
X206469888Y-125569987D01*
X206469888Y-131084675D01*
X206390670Y-131233663D01*
X206223511Y-131438619D01*
X206223511Y-130827757D01*
X206200316Y-130476751D01*
X206109090Y-130137014D01*
X205953337Y-129821602D01*
X205889162Y-129725555D01*
X205586573Y-129631388D01*
X205568612Y-129649349D01*
X205568612Y-129613427D01*
X205474445Y-129310838D01*
X205169708Y-129135115D01*
X204836544Y-129022219D01*
X204487757Y-128976489D01*
X204136751Y-128999684D01*
X203797014Y-129090910D01*
X203481602Y-129246663D01*
X203385555Y-129310838D01*
X203291388Y-129613427D01*
X204430000Y-130752039D01*
X205568612Y-129613427D01*
X205568612Y-129649349D01*
X204447961Y-130770000D01*
X205586573Y-131908612D01*
X205889162Y-131814445D01*
X206064885Y-131509708D01*
X206177781Y-131176544D01*
X206223511Y-130827757D01*
X206223511Y-131438619D01*
X205730073Y-132043634D01*
X205568612Y-132177206D01*
X205568612Y-131926573D01*
X204430000Y-130787961D01*
X204412039Y-130805922D01*
X204412039Y-130770000D01*
X203273427Y-129631388D01*
X202970838Y-129725555D01*
X202795115Y-130030292D01*
X202682219Y-130363456D01*
X202636489Y-130712243D01*
X202659684Y-131063249D01*
X202750910Y-131402986D01*
X202906663Y-131718398D01*
X202970838Y-131814445D01*
X203273427Y-131908612D01*
X204412039Y-130770000D01*
X204412039Y-130805922D01*
X203291388Y-131926573D01*
X203385555Y-132229162D01*
X203690292Y-132404885D01*
X204023456Y-132517781D01*
X204372243Y-132563511D01*
X204723249Y-132540316D01*
X205062986Y-132449090D01*
X205378398Y-132293337D01*
X205474445Y-132229162D01*
X205568612Y-131926573D01*
X205568612Y-132177206D01*
X204924727Y-132709875D01*
X204005324Y-133206993D01*
X203006866Y-133516069D01*
X201920981Y-133630200D01*
X201469888Y-133630200D01*
X201469888Y-125569987D01*
X201392189Y-125177580D01*
X201239751Y-124807738D01*
X201018380Y-124474548D01*
X200736509Y-124190702D01*
X200404873Y-123967011D01*
X200036104Y-123811995D01*
X199644249Y-123731558D01*
X199244233Y-123728766D01*
X198851293Y-123803723D01*
X198480396Y-123953575D01*
X198145669Y-124172614D01*
X197859862Y-124452498D01*
X197633860Y-124782564D01*
X197476274Y-125150242D01*
X197393104Y-125541525D01*
X197387518Y-125941512D01*
X197459731Y-126334966D01*
X197606990Y-126706900D01*
X197823687Y-127043148D01*
X198101568Y-127330902D01*
X198430049Y-127559202D01*
X198796617Y-127719352D01*
X199187311Y-127805252D01*
X199587249Y-127813629D01*
X199981197Y-127744165D01*
X200354150Y-127599506D01*
X200691903Y-127385162D01*
X200981590Y-127109297D01*
X201212178Y-126782418D01*
X201374883Y-126416976D01*
X201463508Y-126026892D01*
X201469888Y-125569987D01*
X201469888Y-133630200D01*
X201223511Y-133630200D01*
X201223511Y-130827757D01*
X201200316Y-130476751D01*
X201109090Y-130137014D01*
X200953337Y-129821602D01*
X200889162Y-129725555D01*
X200586573Y-129631388D01*
X200568612Y-129649349D01*
X200568612Y-129613427D01*
X200474445Y-129310838D01*
X200169708Y-129135115D01*
X199836544Y-129022219D01*
X199487757Y-128976489D01*
X199136751Y-128999684D01*
X198797014Y-129090910D01*
X198481602Y-129246663D01*
X198385555Y-129310838D01*
X198291388Y-129613427D01*
X199430000Y-130752039D01*
X200568612Y-129613427D01*
X200568612Y-129649349D01*
X199447961Y-130770000D01*
X200586573Y-131908612D01*
X200889162Y-131814445D01*
X201064885Y-131509708D01*
X201177781Y-131176544D01*
X201223511Y-130827757D01*
X201223511Y-133630200D01*
X200568612Y-133630200D01*
X200568612Y-131926573D01*
X199430000Y-130787961D01*
X199412039Y-130805922D01*
X199412039Y-130770000D01*
X198273427Y-129631388D01*
X197970838Y-129725555D01*
X197795115Y-130030292D01*
X197682219Y-130363456D01*
X197636489Y-130712243D01*
X197659684Y-131063249D01*
X197750910Y-131402986D01*
X197906663Y-131718398D01*
X197970838Y-131814445D01*
X198273427Y-131908612D01*
X199412039Y-130770000D01*
X199412039Y-130805922D01*
X198291388Y-131926573D01*
X198385555Y-132229162D01*
X198690292Y-132404885D01*
X199023456Y-132517781D01*
X199372243Y-132563511D01*
X199723249Y-132540316D01*
X200062986Y-132449090D01*
X200378398Y-132293337D01*
X200474445Y-132229162D01*
X200568612Y-131926573D01*
X200568612Y-133630200D01*
X194023888Y-133630200D01*
X194023888Y-125569987D01*
X193946189Y-125177580D01*
X193793751Y-124807738D01*
X193572380Y-124474548D01*
X193290509Y-124190702D01*
X192958873Y-123967011D01*
X192590104Y-123811995D01*
X192198249Y-123731558D01*
X191798233Y-123728766D01*
X191405293Y-123803723D01*
X191034396Y-123953575D01*
X190699669Y-124172614D01*
X190413862Y-124452498D01*
X190187860Y-124782564D01*
X190030274Y-125150242D01*
X189947104Y-125541525D01*
X189941518Y-125941512D01*
X190013731Y-126334966D01*
X190160990Y-126706900D01*
X190377687Y-127043148D01*
X190655568Y-127330902D01*
X190984049Y-127559202D01*
X191350617Y-127719352D01*
X191741311Y-127805252D01*
X192141249Y-127813629D01*
X192535197Y-127744165D01*
X192908150Y-127599506D01*
X193245903Y-127385162D01*
X193535590Y-127109297D01*
X193766178Y-126782418D01*
X193928883Y-126416976D01*
X194017508Y-126026892D01*
X194023888Y-125569987D01*
X194023888Y-133630200D01*
X193777511Y-133630200D01*
X193777511Y-130827757D01*
X193754316Y-130476751D01*
X193663090Y-130137014D01*
X193507337Y-129821602D01*
X193443162Y-129725555D01*
X193140573Y-129631388D01*
X193122612Y-129649349D01*
X193122612Y-129613427D01*
X193028445Y-129310838D01*
X192723708Y-129135115D01*
X192390544Y-129022219D01*
X192041757Y-128976489D01*
X191690751Y-128999684D01*
X191351014Y-129090910D01*
X191035602Y-129246663D01*
X190939555Y-129310838D01*
X190845388Y-129613427D01*
X191984000Y-130752039D01*
X193122612Y-129613427D01*
X193122612Y-129649349D01*
X192001961Y-130770000D01*
X193140573Y-131908612D01*
X193443162Y-131814445D01*
X193618885Y-131509708D01*
X193731781Y-131176544D01*
X193777511Y-130827757D01*
X193777511Y-133630200D01*
X193122612Y-133630200D01*
X193122612Y-131926573D01*
X191984000Y-130787961D01*
X191966039Y-130805922D01*
X191966039Y-130770000D01*
X190827427Y-129631388D01*
X190524838Y-129725555D01*
X190349115Y-130030292D01*
X190236219Y-130363456D01*
X190190489Y-130712243D01*
X190213684Y-131063249D01*
X190304910Y-131402986D01*
X190460663Y-131718398D01*
X190524838Y-131814445D01*
X190827427Y-131908612D01*
X191966039Y-130770000D01*
X191966039Y-130805922D01*
X190845388Y-131926573D01*
X190939555Y-132229162D01*
X191244292Y-132404885D01*
X191577456Y-132517781D01*
X191926243Y-132563511D01*
X192277249Y-132540316D01*
X192616986Y-132449090D01*
X192932398Y-132293337D01*
X193028445Y-132229162D01*
X193122612Y-131926573D01*
X193122612Y-133630200D01*
X189023888Y-133630200D01*
X189023888Y-125569987D01*
X188946189Y-125177580D01*
X188793751Y-124807738D01*
X188572380Y-124474548D01*
X188290509Y-124190702D01*
X187958873Y-123967011D01*
X187590104Y-123811995D01*
X187198249Y-123731558D01*
X186798233Y-123728766D01*
X186405293Y-123803723D01*
X186034396Y-123953575D01*
X185699669Y-124172614D01*
X185413862Y-124452498D01*
X185187860Y-124782564D01*
X185030274Y-125150242D01*
X184947104Y-125541525D01*
X184941518Y-125941512D01*
X185013731Y-126334966D01*
X185160990Y-126706900D01*
X185377687Y-127043148D01*
X185655568Y-127330902D01*
X185984049Y-127559202D01*
X186350617Y-127719352D01*
X186741311Y-127805252D01*
X187141249Y-127813629D01*
X187535197Y-127744165D01*
X187908150Y-127599506D01*
X188245903Y-127385162D01*
X188535590Y-127109297D01*
X188766178Y-126782418D01*
X188928883Y-126416976D01*
X189017508Y-126026892D01*
X189023888Y-125569987D01*
X189023888Y-133630200D01*
X188777511Y-133630200D01*
X188777511Y-130827757D01*
X188754316Y-130476751D01*
X188663090Y-130137014D01*
X188507337Y-129821602D01*
X188443162Y-129725555D01*
X188140573Y-129631388D01*
X188122612Y-129649349D01*
X188122612Y-129613427D01*
X188028445Y-129310838D01*
X187723708Y-129135115D01*
X187390544Y-129022219D01*
X187041757Y-128976489D01*
X186690751Y-128999684D01*
X186351014Y-129090910D01*
X186035602Y-129246663D01*
X185939555Y-129310838D01*
X185845388Y-129613427D01*
X186984000Y-130752039D01*
X188122612Y-129613427D01*
X188122612Y-129649349D01*
X187001961Y-130770000D01*
X188140573Y-131908612D01*
X188443162Y-131814445D01*
X188618885Y-131509708D01*
X188731781Y-131176544D01*
X188777511Y-130827757D01*
X188777511Y-133630200D01*
X188122612Y-133630200D01*
X188122612Y-131926573D01*
X186984000Y-130787961D01*
X186966039Y-130805922D01*
X186966039Y-130770000D01*
X185827427Y-129631388D01*
X185524838Y-129725555D01*
X185349115Y-130030292D01*
X185236219Y-130363456D01*
X185190489Y-130712243D01*
X185213684Y-131063249D01*
X185304910Y-131402986D01*
X185460663Y-131718398D01*
X185524838Y-131814445D01*
X185827427Y-131908612D01*
X186966039Y-130770000D01*
X186966039Y-130805922D01*
X185845388Y-131926573D01*
X185939555Y-132229162D01*
X186244292Y-132404885D01*
X186577456Y-132517781D01*
X186926243Y-132563511D01*
X187277249Y-132540316D01*
X187616986Y-132449090D01*
X187932398Y-132293337D01*
X188028445Y-132229162D01*
X188122612Y-131926573D01*
X188122612Y-133630200D01*
X184010359Y-133630200D01*
X184010359Y-115942262D01*
X183957630Y-115675957D01*
X183854178Y-115424966D01*
X183703946Y-115198849D01*
X183512655Y-115006218D01*
X183287592Y-114854411D01*
X183037329Y-114749210D01*
X182771399Y-114694622D01*
X182714990Y-114694228D01*
X180568381Y-112547619D01*
X180494027Y-112486544D01*
X180420357Y-112424727D01*
X180415559Y-112422089D01*
X180411326Y-112418612D01*
X180326546Y-112373153D01*
X180242251Y-112326812D01*
X180237028Y-112325155D01*
X180232205Y-112322569D01*
X180140259Y-112294458D01*
X180048519Y-112265357D01*
X180043074Y-112264746D01*
X180037840Y-112263146D01*
X179942121Y-112253422D01*
X179846540Y-112242702D01*
X179835841Y-112242626D01*
X179835635Y-112242606D01*
X179835442Y-112242624D01*
X179832000Y-112242600D01*
X178716825Y-112242600D01*
X178686655Y-112212218D01*
X178461592Y-112060411D01*
X178211329Y-111955210D01*
X177945399Y-111900622D01*
X177673930Y-111898727D01*
X177407264Y-111949596D01*
X177155556Y-112051293D01*
X177085100Y-112097397D01*
X176996178Y-111881656D01*
X176845946Y-111655539D01*
X176654655Y-111462908D01*
X176429592Y-111311101D01*
X176179329Y-111205900D01*
X175913399Y-111151312D01*
X175641930Y-111149417D01*
X175375264Y-111200286D01*
X175123556Y-111301983D01*
X174896395Y-111450632D01*
X174702434Y-111640574D01*
X174549059Y-111864572D01*
X174442114Y-112114094D01*
X174385671Y-112379637D01*
X174381880Y-112651086D01*
X174430887Y-112918101D01*
X174530824Y-113170512D01*
X174677884Y-113398705D01*
X174866467Y-113593988D01*
X175089388Y-113748923D01*
X175338158Y-113857608D01*
X175603300Y-113915903D01*
X175678015Y-113917467D01*
X178828929Y-117068381D01*
X178903255Y-117129433D01*
X178976953Y-117191273D01*
X178981753Y-117193912D01*
X178985984Y-117197387D01*
X179070724Y-117242824D01*
X179155059Y-117289188D01*
X179160281Y-117290844D01*
X179165105Y-117293431D01*
X179257050Y-117321541D01*
X179348791Y-117350643D01*
X179354235Y-117351253D01*
X179359470Y-117352854D01*
X179455144Y-117362572D01*
X179550770Y-117373298D01*
X179561479Y-117373373D01*
X179561675Y-117373393D01*
X179561857Y-117373375D01*
X179565310Y-117373400D01*
X180232992Y-117373400D01*
X180203556Y-117385293D01*
X179976395Y-117533942D01*
X179932834Y-117576600D01*
X176199362Y-117576600D01*
X173595707Y-114972945D01*
X173596359Y-114926262D01*
X173543630Y-114659957D01*
X173440178Y-114408966D01*
X173289946Y-114182849D01*
X173098655Y-113990218D01*
X172873592Y-113838411D01*
X172623329Y-113733210D01*
X172357399Y-113678622D01*
X172085930Y-113676727D01*
X171819264Y-113727596D01*
X171567556Y-113829293D01*
X171340395Y-113977942D01*
X171146434Y-114167884D01*
X170993059Y-114391882D01*
X170886114Y-114641404D01*
X170829671Y-114906947D01*
X170825880Y-115178396D01*
X170874887Y-115445411D01*
X170974824Y-115697822D01*
X171121884Y-115926015D01*
X171310467Y-116121298D01*
X171533388Y-116276233D01*
X171782158Y-116384918D01*
X172047300Y-116443213D01*
X172122015Y-116444777D01*
X175031619Y-119354381D01*
X175105967Y-119415451D01*
X175179643Y-119477273D01*
X175184440Y-119479910D01*
X175188673Y-119483387D01*
X175273435Y-119528836D01*
X175357749Y-119575188D01*
X175362971Y-119576844D01*
X175367795Y-119579431D01*
X175459753Y-119607545D01*
X175551481Y-119636643D01*
X175556924Y-119637253D01*
X175562159Y-119638854D01*
X175657843Y-119648573D01*
X175753460Y-119659298D01*
X175764168Y-119659373D01*
X175764364Y-119659393D01*
X175764546Y-119659375D01*
X175768000Y-119659400D01*
X179929183Y-119659400D01*
X179946467Y-119677298D01*
X180169388Y-119832233D01*
X180418158Y-119940918D01*
X180683300Y-119999213D01*
X180954716Y-120004898D01*
X181222067Y-119957757D01*
X181475170Y-119859585D01*
X181704384Y-119714121D01*
X181900979Y-119526907D01*
X182057466Y-119305072D01*
X182167885Y-119057067D01*
X182228030Y-118792338D01*
X182232359Y-118482262D01*
X182179630Y-118215957D01*
X182076178Y-117964966D01*
X181925946Y-117738849D01*
X181823379Y-117635563D01*
X181983170Y-117573585D01*
X182212384Y-117428121D01*
X182232548Y-117408918D01*
X182461300Y-117459213D01*
X182732716Y-117464898D01*
X183000067Y-117417757D01*
X183253170Y-117319585D01*
X183482384Y-117174121D01*
X183678979Y-116986907D01*
X183835466Y-116765072D01*
X183945885Y-116517067D01*
X184006030Y-116252338D01*
X184010359Y-115942262D01*
X184010359Y-133630200D01*
X181577888Y-133630200D01*
X181577888Y-125569987D01*
X181500189Y-125177580D01*
X181347751Y-124807738D01*
X181126380Y-124474548D01*
X180844509Y-124190702D01*
X180512873Y-123967011D01*
X180144104Y-123811995D01*
X179752249Y-123731558D01*
X179352233Y-123728766D01*
X178959293Y-123803723D01*
X178588396Y-123953575D01*
X178253669Y-124172614D01*
X177967862Y-124452498D01*
X177741860Y-124782564D01*
X177584274Y-125150242D01*
X177501104Y-125541525D01*
X177495518Y-125941512D01*
X177567731Y-126334966D01*
X177714990Y-126706900D01*
X177931687Y-127043148D01*
X178209568Y-127330902D01*
X178538049Y-127559202D01*
X178904617Y-127719352D01*
X179295311Y-127805252D01*
X179695249Y-127813629D01*
X180089197Y-127744165D01*
X180462150Y-127599506D01*
X180799903Y-127385162D01*
X181089590Y-127109297D01*
X181320178Y-126782418D01*
X181482883Y-126416976D01*
X181571508Y-126026892D01*
X181577888Y-125569987D01*
X181577888Y-133630200D01*
X181331511Y-133630200D01*
X181331511Y-130827757D01*
X181308316Y-130476751D01*
X181217090Y-130137014D01*
X181061337Y-129821602D01*
X180997162Y-129725555D01*
X180694573Y-129631388D01*
X180676612Y-129649349D01*
X180676612Y-129613427D01*
X180582445Y-129310838D01*
X180277708Y-129135115D01*
X179944544Y-129022219D01*
X179595757Y-128976489D01*
X179244751Y-128999684D01*
X178905014Y-129090910D01*
X178589602Y-129246663D01*
X178493555Y-129310838D01*
X178399388Y-129613427D01*
X179538000Y-130752039D01*
X180676612Y-129613427D01*
X180676612Y-129649349D01*
X179555961Y-130770000D01*
X180694573Y-131908612D01*
X180997162Y-131814445D01*
X181172885Y-131509708D01*
X181285781Y-131176544D01*
X181331511Y-130827757D01*
X181331511Y-133630200D01*
X180676612Y-133630200D01*
X180676612Y-131926573D01*
X179538000Y-130787961D01*
X179520039Y-130805922D01*
X179520039Y-130770000D01*
X178381427Y-129631388D01*
X178078838Y-129725555D01*
X177903115Y-130030292D01*
X177790219Y-130363456D01*
X177744489Y-130712243D01*
X177767684Y-131063249D01*
X177858910Y-131402986D01*
X178014663Y-131718398D01*
X178078838Y-131814445D01*
X178381427Y-131908612D01*
X179520039Y-130770000D01*
X179520039Y-130805922D01*
X178399388Y-131926573D01*
X178493555Y-132229162D01*
X178798292Y-132404885D01*
X179131456Y-132517781D01*
X179480243Y-132563511D01*
X179831249Y-132540316D01*
X180170986Y-132449090D01*
X180486398Y-132293337D01*
X180582445Y-132229162D01*
X180676612Y-131926573D01*
X180676612Y-133630200D01*
X176577888Y-133630200D01*
X176577888Y-125569987D01*
X176500189Y-125177580D01*
X176347751Y-124807738D01*
X176126380Y-124474548D01*
X175844509Y-124190702D01*
X175512873Y-123967011D01*
X175144104Y-123811995D01*
X174752249Y-123731558D01*
X174352233Y-123728766D01*
X173959293Y-123803723D01*
X173588396Y-123953575D01*
X173253669Y-124172614D01*
X172967862Y-124452498D01*
X172741860Y-124782564D01*
X172584274Y-125150242D01*
X172501104Y-125541525D01*
X172495518Y-125941512D01*
X172567731Y-126334966D01*
X172714990Y-126706900D01*
X172931687Y-127043148D01*
X173209568Y-127330902D01*
X173538049Y-127559202D01*
X173904617Y-127719352D01*
X174295311Y-127805252D01*
X174695249Y-127813629D01*
X175089197Y-127744165D01*
X175462150Y-127599506D01*
X175799903Y-127385162D01*
X176089590Y-127109297D01*
X176320178Y-126782418D01*
X176482883Y-126416976D01*
X176571508Y-126026892D01*
X176577888Y-125569987D01*
X176577888Y-133630200D01*
X176331511Y-133630200D01*
X176331511Y-130827757D01*
X176308316Y-130476751D01*
X176217090Y-130137014D01*
X176061337Y-129821602D01*
X175997162Y-129725555D01*
X175694573Y-129631388D01*
X175676612Y-129649349D01*
X175676612Y-129613427D01*
X175582445Y-129310838D01*
X175277708Y-129135115D01*
X174944544Y-129022219D01*
X174595757Y-128976489D01*
X174244751Y-128999684D01*
X173905014Y-129090910D01*
X173589602Y-129246663D01*
X173493555Y-129310838D01*
X173399388Y-129613427D01*
X174538000Y-130752039D01*
X175676612Y-129613427D01*
X175676612Y-129649349D01*
X174555961Y-130770000D01*
X175694573Y-131908612D01*
X175997162Y-131814445D01*
X176172885Y-131509708D01*
X176285781Y-131176544D01*
X176331511Y-130827757D01*
X176331511Y-133630200D01*
X175676612Y-133630200D01*
X175676612Y-131926573D01*
X174538000Y-130787961D01*
X174520039Y-130805922D01*
X174520039Y-130770000D01*
X173381427Y-129631388D01*
X173078838Y-129725555D01*
X172903115Y-130030292D01*
X172790219Y-130363456D01*
X172744489Y-130712243D01*
X172767684Y-131063249D01*
X172858910Y-131402986D01*
X173014663Y-131718398D01*
X173078838Y-131814445D01*
X173381427Y-131908612D01*
X174520039Y-130770000D01*
X174520039Y-130805922D01*
X173399388Y-131926573D01*
X173493555Y-132229162D01*
X173798292Y-132404885D01*
X174131456Y-132517781D01*
X174480243Y-132563511D01*
X174831249Y-132540316D01*
X175170986Y-132449090D01*
X175486398Y-132293337D01*
X175582445Y-132229162D01*
X175676612Y-131926573D01*
X175676612Y-133630200D01*
X169131888Y-133630200D01*
X169131888Y-125569987D01*
X169054189Y-125177580D01*
X168901751Y-124807738D01*
X168680380Y-124474548D01*
X168398509Y-124190702D01*
X168066873Y-123967011D01*
X167698104Y-123811995D01*
X167306249Y-123731558D01*
X166906233Y-123728766D01*
X166513293Y-123803723D01*
X166142396Y-123953575D01*
X165807669Y-124172614D01*
X165521862Y-124452498D01*
X165295860Y-124782564D01*
X165138274Y-125150242D01*
X165055104Y-125541525D01*
X165049518Y-125941512D01*
X165121731Y-126334966D01*
X165268990Y-126706900D01*
X165485687Y-127043148D01*
X165763568Y-127330902D01*
X166092049Y-127559202D01*
X166458617Y-127719352D01*
X166849311Y-127805252D01*
X167249249Y-127813629D01*
X167643197Y-127744165D01*
X168016150Y-127599506D01*
X168353903Y-127385162D01*
X168643590Y-127109297D01*
X168874178Y-126782418D01*
X169036883Y-126416976D01*
X169125508Y-126026892D01*
X169131888Y-125569987D01*
X169131888Y-133630200D01*
X168885511Y-133630200D01*
X168885511Y-130827757D01*
X168862316Y-130476751D01*
X168771090Y-130137014D01*
X168615337Y-129821602D01*
X168551162Y-129725555D01*
X168248573Y-129631388D01*
X168230612Y-129649349D01*
X168230612Y-129613427D01*
X168136445Y-129310838D01*
X167831708Y-129135115D01*
X167498544Y-129022219D01*
X167149757Y-128976489D01*
X166798751Y-128999684D01*
X166459014Y-129090910D01*
X166143602Y-129246663D01*
X166047555Y-129310838D01*
X165953388Y-129613427D01*
X167092000Y-130752039D01*
X168230612Y-129613427D01*
X168230612Y-129649349D01*
X167109961Y-130770000D01*
X168248573Y-131908612D01*
X168551162Y-131814445D01*
X168726885Y-131509708D01*
X168839781Y-131176544D01*
X168885511Y-130827757D01*
X168885511Y-133630200D01*
X168230612Y-133630200D01*
X168230612Y-131926573D01*
X167092000Y-130787961D01*
X167074039Y-130805922D01*
X167074039Y-130770000D01*
X165935427Y-129631388D01*
X165632838Y-129725555D01*
X165457115Y-130030292D01*
X165344219Y-130363456D01*
X165298489Y-130712243D01*
X165321684Y-131063249D01*
X165412910Y-131402986D01*
X165568663Y-131718398D01*
X165632838Y-131814445D01*
X165935427Y-131908612D01*
X167074039Y-130770000D01*
X167074039Y-130805922D01*
X165953388Y-131926573D01*
X166047555Y-132229162D01*
X166352292Y-132404885D01*
X166685456Y-132517781D01*
X167034243Y-132563511D01*
X167385249Y-132540316D01*
X167724986Y-132449090D01*
X168040398Y-132293337D01*
X168136445Y-132229162D01*
X168230612Y-131926573D01*
X168230612Y-133630200D01*
X164131888Y-133630200D01*
X164131888Y-125569987D01*
X164054189Y-125177580D01*
X163901751Y-124807738D01*
X163680380Y-124474548D01*
X163398509Y-124190702D01*
X163066873Y-123967011D01*
X162698104Y-123811995D01*
X162306249Y-123731558D01*
X161906233Y-123728766D01*
X161513293Y-123803723D01*
X161142396Y-123953575D01*
X160807669Y-124172614D01*
X160521862Y-124452498D01*
X160295860Y-124782564D01*
X160138274Y-125150242D01*
X160055104Y-125541525D01*
X160049518Y-125941512D01*
X160121731Y-126334966D01*
X160268990Y-126706900D01*
X160485687Y-127043148D01*
X160763568Y-127330902D01*
X161092049Y-127559202D01*
X161458617Y-127719352D01*
X161849311Y-127805252D01*
X162249249Y-127813629D01*
X162643197Y-127744165D01*
X163016150Y-127599506D01*
X163353903Y-127385162D01*
X163643590Y-127109297D01*
X163874178Y-126782418D01*
X164036883Y-126416976D01*
X164125508Y-126026892D01*
X164131888Y-125569987D01*
X164131888Y-133630200D01*
X163885511Y-133630200D01*
X163885511Y-130827757D01*
X163862316Y-130476751D01*
X163771090Y-130137014D01*
X163615337Y-129821602D01*
X163551162Y-129725555D01*
X163248573Y-129631388D01*
X163230612Y-129649349D01*
X163230612Y-129613427D01*
X163136445Y-129310838D01*
X162831708Y-129135115D01*
X162498544Y-129022219D01*
X162149757Y-128976489D01*
X161798751Y-128999684D01*
X161459014Y-129090910D01*
X161143602Y-129246663D01*
X161047555Y-129310838D01*
X160953388Y-129613427D01*
X162092000Y-130752039D01*
X163230612Y-129613427D01*
X163230612Y-129649349D01*
X162109961Y-130770000D01*
X163248573Y-131908612D01*
X163551162Y-131814445D01*
X163726885Y-131509708D01*
X163839781Y-131176544D01*
X163885511Y-130827757D01*
X163885511Y-133630200D01*
X163878409Y-133630200D01*
X163230612Y-133566682D01*
X163230612Y-131926573D01*
X162092000Y-130787961D01*
X162074039Y-130805922D01*
X162074039Y-130770000D01*
X160935427Y-129631388D01*
X160632838Y-129725555D01*
X160457115Y-130030292D01*
X160344219Y-130363456D01*
X160298489Y-130712243D01*
X160321684Y-131063249D01*
X160412910Y-131402986D01*
X160568663Y-131718398D01*
X160632838Y-131814445D01*
X160935427Y-131908612D01*
X162074039Y-130770000D01*
X162074039Y-130805922D01*
X160953388Y-131926573D01*
X161047555Y-132229162D01*
X161352292Y-132404885D01*
X161685456Y-132517781D01*
X162034243Y-132563511D01*
X162385249Y-132540316D01*
X162724986Y-132449090D01*
X163040398Y-132293337D01*
X163136445Y-132229162D01*
X163230612Y-131926573D01*
X163230612Y-133566682D01*
X162789788Y-133523459D01*
X161789196Y-133221362D01*
X160866336Y-132730670D01*
X160056365Y-132070073D01*
X159390124Y-131264727D01*
X158893006Y-130345324D01*
X158583930Y-129346866D01*
X158469800Y-128260981D01*
X158469800Y-102918408D01*
X158576540Y-101829789D01*
X158878637Y-100829195D01*
X159369327Y-99906340D01*
X160029926Y-99096365D01*
X160835270Y-98430126D01*
X161754679Y-97933003D01*
X162753133Y-97623930D01*
X163839018Y-97509800D01*
X183273871Y-97509800D01*
X183271880Y-97652396D01*
X183320887Y-97919411D01*
X183420824Y-98171822D01*
X183567884Y-98400015D01*
X183681194Y-98517351D01*
X183691075Y-98551360D01*
X183693595Y-98556222D01*
X183695178Y-98561464D01*
X183740344Y-98646409D01*
X183762461Y-98689076D01*
X183538601Y-98643125D01*
X183257419Y-98641162D01*
X182981211Y-98693851D01*
X182720498Y-98799186D01*
X182485209Y-98953155D01*
X182284308Y-99149892D01*
X182125445Y-99381905D01*
X182014673Y-99640355D01*
X181956211Y-99915399D01*
X181952285Y-100196560D01*
X182003045Y-100473129D01*
X182106557Y-100734572D01*
X182258880Y-100970930D01*
X182454210Y-101173200D01*
X182685107Y-101333678D01*
X182942778Y-101446252D01*
X183217407Y-101506633D01*
X183498534Y-101512522D01*
X183775451Y-101463694D01*
X183857920Y-101431706D01*
X183857920Y-101516394D01*
X183757264Y-101535596D01*
X183505556Y-101637293D01*
X183278395Y-101785942D01*
X183084434Y-101975884D01*
X182931059Y-102199882D01*
X182824114Y-102449404D01*
X182767671Y-102714947D01*
X182763880Y-102986396D01*
X182812887Y-103253411D01*
X182912824Y-103505822D01*
X183059884Y-103734015D01*
X183108600Y-103784461D01*
X183108600Y-105486638D01*
X182030243Y-106564994D01*
X181991930Y-106564727D01*
X181725264Y-106615596D01*
X181473556Y-106717293D01*
X181246395Y-106865942D01*
X181052434Y-107055884D01*
X180899059Y-107279882D01*
X180792114Y-107529404D01*
X180735671Y-107794947D01*
X180731880Y-108066396D01*
X180780887Y-108333411D01*
X180880824Y-108585822D01*
X181027884Y-108814015D01*
X181216467Y-109009298D01*
X181439388Y-109164233D01*
X181688158Y-109272918D01*
X181953300Y-109331213D01*
X182224716Y-109336898D01*
X182492067Y-109289757D01*
X182745170Y-109191585D01*
X182974384Y-109046121D01*
X183170979Y-108858907D01*
X183327466Y-108637072D01*
X183437885Y-108389067D01*
X183498030Y-108124338D01*
X183499185Y-108041576D01*
X184302295Y-107238466D01*
X184290336Y-107294733D01*
X184286545Y-107566182D01*
X184335552Y-107833197D01*
X184435489Y-108085608D01*
X184582549Y-108313801D01*
X184771132Y-108509084D01*
X184994053Y-108664019D01*
X185242823Y-108772704D01*
X185507965Y-108830999D01*
X185779381Y-108836684D01*
X186046732Y-108789543D01*
X186299835Y-108691371D01*
X186529049Y-108545907D01*
X186725644Y-108358693D01*
X186882131Y-108136858D01*
X186992550Y-107888853D01*
X187052695Y-107624124D01*
X187057024Y-107314048D01*
X187004295Y-107047743D01*
X186900843Y-106796752D01*
X186750611Y-106570635D01*
X186714065Y-106533832D01*
X186714065Y-106258684D01*
X186810067Y-106241757D01*
X187063170Y-106143585D01*
X187292384Y-105998121D01*
X187488979Y-105810907D01*
X187645466Y-105589072D01*
X187755885Y-105341067D01*
X187816030Y-105076338D01*
X187820359Y-104766262D01*
X187767630Y-104499957D01*
X187664178Y-104248966D01*
X187513946Y-104022849D01*
X187477400Y-103986046D01*
X187477400Y-102128543D01*
X187535037Y-102188228D01*
X187765730Y-102348564D01*
X188023173Y-102461038D01*
X188297558Y-102521366D01*
X188578436Y-102527249D01*
X188855108Y-102478465D01*
X189117035Y-102376870D01*
X189354240Y-102226335D01*
X189557688Y-102032594D01*
X189719631Y-101803025D01*
X189833899Y-101546374D01*
X189896141Y-101272416D01*
X189900622Y-100951530D01*
X189846054Y-100675941D01*
X189738996Y-100416199D01*
X189583526Y-100182199D01*
X189478279Y-100076214D01*
X189557688Y-100000594D01*
X189719631Y-99771025D01*
X189833899Y-99514374D01*
X189896141Y-99240416D01*
X189900622Y-98919530D01*
X189846054Y-98643941D01*
X189738996Y-98384199D01*
X189583526Y-98150199D01*
X189385567Y-97950852D01*
X189152657Y-97793753D01*
X188893669Y-97684884D01*
X188618468Y-97628394D01*
X188579177Y-97628119D01*
X188580829Y-97509800D01*
X201881591Y-97509800D01*
X202970210Y-97616540D01*
X203970804Y-97918637D01*
X204893659Y-98409327D01*
X205703634Y-99069926D01*
X206369873Y-99875270D01*
X206866996Y-100794679D01*
X207176069Y-101793133D01*
X207290200Y-102879018D01*
X207290200Y-128221590D01*
M02*
